<?xml version="1.0" encoding="UTF-8" standalone="no"?><!DOCTYPE svg PUBLIC "-//W3C//DTD SVG 1.1//EN" "http://www.w3.org/Graphics/SVG/1.1/DTD/svg11.dtd"><svg width="100%" height="100%" viewBox="0 0 64 64" version="1.1" xmlns="http://www.w3.org/2000/svg" xmlns:xlink="http://www.w3.org/1999/xlink" xml:space="preserve" xmlns:serif="http://www.serif.com/" style="fill-rule:evenodd;clip-rule:evenodd;stroke-linejoin:round;stroke-miterlimit:2;"><g id="folder_B"><path d="M61.122,17.148c0,-2.122 -0.843,-4.157 -2.344,-5.657c-1.5,-1.5 -3.535,-2.343 -5.656,-2.343c-12.631,0 -36.735,0 -46.244,0c-2.209,0 -4,1.791 -4,4c0,7.511 0,23.855 0,33.704c0,2.122 0.843,4.157 2.344,5.657c1.5,1.5 3.535,2.343 5.656,2.343c11.119,0 31.125,0 42.244,0c2.121,0 4.156,-0.843 5.656,-2.343c1.501,-1.5 2.344,-3.535 2.344,-5.657c0,-8.347 0,-21.357 0,-29.704Z" style="fill:#0083d5;"/><path d="M61.122,17.148c0,-2.122 -0.843,-4.157 -2.344,-5.657c-1.5,-1.5 -3.535,-2.343 -5.656,-2.343c-7.292,0 -17.598,0 -22.162,0c-1.478,0 -2.879,0.653 -3.829,1.784c-0.729,0.869 -1.604,1.909 -2.333,2.778c-0.95,1.131 -2.351,1.784 -3.829,1.784c-3.169,0 -8.922,0 -13.091,0c-1.326,0 -2.597,0.527 -3.535,1.465c-0.938,0.937 -1.465,2.209 -1.465,3.535c0,6.646 0,18.466 0,26.358c0,2.122 0.843,4.157 2.344,5.657c1.5,1.5 3.535,2.343 5.656,2.343l42.244,0c2.121,0 4.156,-0.843 5.656,-2.343c1.501,-1.5 2.344,-3.535 2.344,-5.657c0,-8.347 0,-21.357 0,-29.704Z" style="fill:url(#_Linear1);"/></g><path id="path26" d="M32,18.536c-0.52,0 -1.044,0.043 -1.55,0.094c-1.013,0.103 -1.97,0.272 -2.913,0.564c-4.713,1.46 -8.453,5.199 -9.912,9.912c-0.292,0.943 -0.462,1.9 -0.564,2.913c-0.051,0.507 -0.094,1.03 -0.094,1.55c0,0.521 0.043,1.044 0.094,1.551c0.102,1.013 0.272,1.97 0.564,2.912c1.459,4.713 5.199,8.453 9.912,9.913c0.943,0.292 1.9,0.461 2.913,0.563c0.506,0.051 1.03,0.094 1.55,0.094c0.52,0 1.044,-0.043 1.55,-0.094c1.013,-0.102 1.97,-0.271 2.913,-0.563c0.941,-0.293 1.873,-0.712 2.725,-1.175c3.408,-1.847 6.019,-4.967 7.187,-8.738c0.292,-0.942 0.462,-1.899 0.564,-2.912c0.051,-0.507 0.094,-1.03 0.094,-1.551c0,-0.519 -0.043,-1.045 -0.094,-1.55c-0.102,-1.013 -0.272,-1.97 -0.564,-2.913c-0.584,-1.885 -1.548,-3.636 -2.771,-5.12c-0.307,-0.371 -0.647,-0.694 -0.987,-1.034c-1.359,-1.358 -2.945,-2.482 -4.745,-3.241c-0.449,-0.19 -0.938,-0.371 -1.409,-0.517c-0.943,-0.292 -1.9,-0.461 -2.913,-0.564c-0.506,-0.051 -1.03,-0.094 -1.55,-0.094Zm0,1.504c2.275,0 4.413,0.558 6.295,1.55c0.05,0.026 0.092,0.067 0.141,0.094c0.038,0.05 0.027,0.104 0.094,0.141c0.049,0.027 0.095,0.069 0.141,0.094c0.079,0.044 0.157,0.111 0.141,0.188c-0.022,0.112 -0.206,0.106 -0.282,0.188c0.01,0.158 -0.053,0.128 -0.094,0.234c0.025,0.069 0.083,0.06 0.094,0.141c-0.014,0.088 -0.127,0.098 -0.094,0.188c0.148,0.115 0.283,0.019 0.423,0c0.306,-0.038 0.563,0.007 0.751,-0.141c-0.019,-0.117 0.092,-0.15 0.141,-0.234c0.1,0.069 0.184,0.162 0.282,0.234c-0.057,0.025 -0.183,0.062 -0.235,0.094c-0.076,0.052 -0.1,0.131 -0.188,0.188c-0.062,0.044 -0.216,0.188 -0.281,0.188c-0.08,0 -0.225,-0.066 -0.282,-0.047c-0.082,0.025 -0.048,0.155 -0.141,0.188c-0.181,0.066 -0.501,-0.176 -0.564,0.094c0.077,0.156 0.333,0.103 0.47,0.188c0.085,0.055 0.213,0.33 0.235,0.423c0.021,0.076 0.032,0.341 0,0.423c-0.085,0.218 -0.313,0.193 -0.564,0.187c-0.068,0 -0.125,0.006 -0.188,0c-0.424,-0.027 -0.842,-0.162 -1.033,0.141c0.013,0.233 0.052,0.362 0,0.564c-0.039,0.148 -0.197,0.248 -0.188,0.376c0.003,0.066 0.124,0.192 0.141,0.282c0.01,0.049 -0.022,0.144 0,0.188c0.071,0.134 0.25,-0.022 0.375,0c0.121,0.019 0.235,0.195 0.235,0.329c0,0.095 -0.034,0.283 -0.094,0.375c-0.12,0.181 -0.344,0.137 -0.516,0.235c-0.143,0.082 -0.198,0.281 -0.282,0.423c-0.09,0.153 -0.177,0.204 -0.141,0.423c-0.123,0.243 -0.263,0.399 -0.517,0.517c-0.074,0.032 -0.167,0.091 -0.235,0.141c-0.055,0.038 -0.111,0.1 -0.188,0.188c-0.095,0.106 -0.23,0.152 -0.282,0.234c-0.038,0.063 -0.006,0.198 -0.047,0.282c-0.06,0.115 -0.158,0.214 -0.235,0.329c-0.035,0.055 -0.102,0.117 -0.141,0.188c-0.087,0.159 -0.204,0.283 -0.187,0.423c0.013,0.134 0.179,0.164 0.187,0.282c0.008,0.065 -0.049,0.117 -0.046,0.188c0.003,0.103 0.038,0.153 0.046,0.234c0.02,0.203 -0.102,0.284 -0.14,0.423c-0.019,0.066 0.016,0.136 0,0.188c-0.033,0.101 -0.186,0.162 -0.188,0.282c-0.003,0.085 0.133,0.162 0.141,0.282c0.006,0.082 -0.064,0.158 -0.047,0.235c0.03,0.147 0.308,0.355 0.422,0.47c0.156,0.155 0.308,0.258 0.376,0.422c0.058,0.14 0.082,0.366 0.188,0.47c0.079,0.077 0.228,0.109 0.329,0.188c0.096,0.074 0.228,0.109 0.329,0.188c0.167,0.131 0.392,0.395 0.658,0.376c0.139,-0.011 0.267,-0.067 0.422,-0.094c0.162,-0.027 0.353,-0.11 0.517,-0.094c0.126,0.013 0.245,0.102 0.376,0.094c0.137,-0.008 0.314,-0.073 0.47,-0.141c0.27,-0.118 0.687,-0.339 1.08,-0.282c0.301,0.044 0.307,0.383 0.517,0.517c0.24,0.022 0.419,-0.047 0.611,0c0.145,0.035 0.315,0.308 0.329,0.423c0.013,0.117 -0.078,0.208 -0.094,0.282c-0.039,0.158 -0.067,0.368 -0.094,0.469c-0.022,0.08 -0.05,0.156 -0.047,0.235c0,0.071 0.114,0.236 0.188,0.329c0.09,0.115 0.219,0.203 0.328,0.329c0.2,0.229 0.284,0.542 0.423,0.846c0.036,0.076 -0.033,0.092 0,0.187c-0.06,0.46 -0.216,0.761 -0.517,1.269c-0.142,0.164 -0.284,0.359 -0.281,0.564c-0.011,0.491 0.256,0.746 0.234,1.221c-0.049,0.639 0.003,0.739 -0.046,1.08c0.215,0.11 0.109,0.431 0.046,0.658c-0.092,0.271 -0.183,0.337 -0.234,0.517c0.112,0.048 0.206,0.061 0.328,0.047c-2.461,2.559 -5.94,4.134 -9.771,4.134c-1.793,0 -3.507,-0.353 -5.074,-0.987c-0.005,-0.002 0.006,-0.044 0,-0.046c0.142,-0.061 0.413,0.105 0.517,-0.095c0.052,-0.095 -0.068,-0.28 0,-0.375c0.049,-0.066 0.369,-0.125 0.47,-0.141c0.145,-0.025 0.294,0.005 0.376,-0.047c0.09,-0.058 0.204,-0.207 0.188,-0.376c-0.008,-0.079 -0.079,-0.117 -0.141,-0.188c-0.052,-0.06 -0.012,-0.133 -0.047,-0.188c-0.066,-0.095 -0.161,-0.142 -0.188,-0.282c0.197,-0.038 0.467,0.22 0.752,0.141c0.133,-0.038 0.359,-0.297 0.422,-0.423c0.019,-0.038 -0.022,-0.188 0,-0.234c0.025,-0.052 0.086,-0.067 0.094,-0.094c0.019,-0.074 -0.016,-0.095 0,-0.141c0.049,-0.14 0.2,-0.228 0.282,-0.329c0.063,-0.077 0.131,-0.156 0.188,-0.235c0.066,-0.085 0.097,-0.114 0.141,-0.188c0.041,-0.249 -0.154,-0.439 -0.094,-0.658c0.066,-0.246 0.42,-0.404 0.658,-0.516c0.082,-0.039 0.166,-0.117 0.235,-0.141c0.164,-0.058 0.363,-0.04 0.516,-0.094c0.257,-0.093 0.344,-0.376 0.47,-0.611c0.06,-0.109 0.13,-0.203 0.141,-0.282c0.011,-0.071 -0.013,-0.153 0,-0.235c0.014,-0.082 0.025,-0.145 0.047,-0.235c0.03,-0.117 0.047,-0.338 0.047,-0.47c0,-0.109 -0.044,-0.136 -0.047,-0.234c-0.019,-0.356 0.104,-0.37 0.235,-0.564c0.065,-0.096 0.095,-0.261 0.141,-0.329c0.221,-0.328 0.591,-0.489 0.564,-0.987c-0.011,-0.163 -0.068,-0.511 -0.188,-0.563c-0.069,-0.03 -0.228,-0.009 -0.329,-0.047c-0.323,-0.12 -0.557,-0.49 -0.893,-0.517c-0.071,-0.003 -0.108,0.003 -0.188,0c-0.131,-0.003 -0.275,-0.125 -0.422,-0.141c-0.093,-0.01 -0.275,0.027 -0.329,0c-0.085,-0.041 -0.073,-0.188 -0.141,-0.235c-0.055,-0.038 -0.15,-0.064 -0.235,-0.094c-0.134,-0.052 -0.22,-0.083 -0.376,-0.094c-0.049,-0.003 -0.18,0.008 -0.235,0c-0.085,-0.013 -0.156,-0.092 -0.235,-0.141c-0.098,-0.06 -0.147,-0.103 -0.188,-0.188c0.091,-0.295 -0.221,-0.344 -0.281,-0.516c-0.028,-0.08 0.027,-0.211 0,-0.282c-0.036,-0.101 -0.123,-0.15 -0.235,-0.235c-0.197,-0.153 -0.377,-0.293 -0.658,-0.329c-0.126,-0.013 -0.273,0.011 -0.423,0c-0.158,-0.011 -0.349,-0.098 -0.47,-0.235c-0.115,-0.134 -0.133,-0.266 -0.235,-0.329c-0.095,-0.06 -0.263,-0.078 -0.328,-0.141c-0.031,-0.027 -0.02,-0.078 -0.047,-0.141c-0.05,-0.098 -0.154,-0.114 -0.094,-0.234c-0.11,-0.055 -0.071,0.068 -0.188,0.047c-0.107,-0.151 -0.183,-0.235 -0.423,-0.188c-0.109,0.021 -0.2,0.185 -0.329,0.188c-0.107,0.003 -0.189,-0.169 -0.329,-0.188c-0.106,-0.014 -0.255,0.11 -0.329,0.094c-0.117,-0.022 -0.128,-0.164 -0.235,-0.235c-0.079,-0.052 -0.238,-0.191 -0.281,-0.188c-0.137,0.003 -0.235,0.289 -0.423,0.188c-0.093,-0.118 0.156,-0.126 0.047,-0.235c-0.082,-0.082 -0.122,0.003 -0.188,0.047c-0.077,0.052 -0.15,0.111 -0.235,0.141c-0.189,0.071 -0.322,0.064 -0.47,0.141c-0.136,0.071 -0.155,0.189 -0.235,0.328c-0.062,0.115 -0.186,0.277 -0.282,0.282c-0.114,0.008 -0.225,-0.144 -0.328,-0.188c-0.315,-0.136 -0.492,0.092 -0.752,0.094c-0.241,0.003 -0.575,-0.384 -0.564,-0.61c0.008,-0.14 0.078,-0.345 0.094,-0.517c0.014,-0.137 0.139,-0.25 0.141,-0.376c0.003,-0.167 -0.266,-0.31 -0.376,-0.329c-0.257,-0.046 -0.6,0.115 -0.892,0c-0.055,-0.093 0.108,-0.144 0.141,-0.235c0.019,-0.051 -0.019,-0.083 0,-0.141c0.032,-0.087 0.147,-0.142 0.188,-0.234c0.03,-0.072 0.016,-0.195 0.047,-0.282c0.035,-0.099 0.132,-0.164 0.14,-0.235c0.011,-0.093 -0.067,-0.222 -0.14,-0.282c-0.227,0.013 -0.386,0.034 -0.517,0.094c-0.295,0.134 -0.219,0.518 -0.517,0.611c-0.101,0.032 -0.261,0.074 -0.376,0.094c0.195,-0.984 0.498,-1.925 0.893,-2.819c0.104,0.019 0.191,0.086 0.282,0.094c0.251,0.019 0.262,-0.173 0.469,-0.282c0.214,0.03 0.323,-0.022 0.517,0c0.131,0.013 0.319,0.18 0.423,0.188c0.087,0.003 0.106,-0.108 0.188,-0.094c0.082,0.013 0.221,0.183 0.235,0.282c0.013,0.123 -0.083,0.239 -0.047,0.376c0.128,0.131 0.38,0.205 0.564,0.281c0.12,-0.098 0.019,-0.327 0,-0.469c-0.003,-0.063 0.007,-0.131 0,-0.188c-0.014,-0.099 -0.047,-0.197 -0.047,-0.282c0,-0.391 0.301,-0.552 0.563,-0.705c0.112,-0.065 0.231,-0.185 0.329,-0.235c0.14,-0.068 0.214,-0.075 0.329,-0.141c0.208,-0.117 0.402,-0.241 0.564,-0.375c0.074,-0.178 -0.008,-0.389 0,-0.564c0.074,-0.047 0.108,0.007 0.188,0c0.125,-0.028 0.163,-0.211 0.235,-0.282c0.041,-0.041 0.185,-0.053 0.234,-0.094c0.126,-0.098 0.126,-0.238 0.235,-0.282c0.039,-0.013 0.128,-0.03 0.188,-0.047c0.082,-0.022 0.198,-0.094 0.329,-0.141c0.085,-0.03 0.296,-0.014 0.329,-0.047c0.041,-0.041 -0.011,-0.219 0,-0.282c0.065,-0.308 0.523,-0.319 0.799,-0.422c0.191,-0.074 0.397,-0.229 0.61,-0.188c-0.041,0.147 -0.223,0.104 -0.188,0.282c0.047,0.248 0.336,-0.059 0.423,-0.094c0.167,-0.071 0.486,-0.109 0.705,-0.188c0.191,-0.069 0.509,-0.202 0.329,-0.423c-0.151,-0.011 -0.198,0.133 -0.329,0.188c-0.09,0.013 -0.112,-0.042 -0.188,-0.047c-0.074,-0.003 -0.114,0.06 -0.188,0.047c-0.074,-0.014 -0.177,-0.148 -0.188,-0.235c-0.03,-0.23 0.236,-0.3 0.329,-0.47c-0.063,-0.208 -0.342,-0.012 -0.517,-0.094c0.019,-0.123 0.09,-0.257 0.235,-0.282c0.118,-0.019 0.399,0.037 0.47,0.094c0.041,0.036 -0.016,0.131 0.047,0.188c0.071,0.063 0.189,0.014 0.282,0c0.032,-0.156 -0.216,-0.087 -0.188,-0.188c0.186,-0.12 0.525,-0.064 0.751,-0.094c0.132,-0.019 0.259,-0.125 0.376,-0.188c0.11,-0.062 0.214,-0.15 0.329,-0.047c0.033,0.112 -0.078,0.178 -0.141,0.235c-0.21,0.186 -0.4,0.395 -0.564,0.611c0.102,0.098 0.254,0.028 0.423,0.047c0.066,0.008 0.167,0.036 0.235,0.047c0.082,0.014 0.169,-0.014 0.235,0c0.115,0.027 0.12,0.188 0.235,0.188c0.186,0 0.201,-0.156 0.094,-0.282c0.033,-0.128 0.093,-0.239 0.047,-0.329c-0.085,-0.169 -0.407,0.028 -0.423,-0.188c-0.01,-0.136 0.139,-0.178 0.188,-0.282c-0.022,-0.262 0.215,-0.279 0.188,-0.516c-0.014,-0.099 -0.12,-0.095 -0.188,-0.188c-0.036,-0.049 -0.053,-0.153 -0.094,-0.188c-0.142,-0.12 -0.406,-0.099 -0.423,-0.329c-0.007,-0.137 0.019,-0.228 0,-0.376c-0.019,-0.139 -0.161,-0.536 -0.282,-0.564c-0.153,-0.032 -0.239,0.245 -0.423,0.329c-0.098,0.047 -0.274,0.066 -0.375,0.047c-0.066,-0.013 -0.18,-0.062 -0.188,-0.188c-0.007,-0.072 0.016,-0.098 0.047,-0.141c0.007,-0.01 -0.008,-0.036 0,-0.047c1.189,-0.341 2.459,-0.516 3.758,-0.516Zm-5.59,1.221c-0.134,0.427 -0.52,0.671 -1.034,0.658c-0.126,0.12 -0.073,0.35 -0.141,0.517c-0.057,0.139 -0.236,0.245 -0.376,0.234c-0.101,-0.007 -0.282,-0.139 -0.282,-0.234c0,-0.079 0.076,-0.167 0.094,-0.235c0.554,-0.358 1.134,-0.665 1.739,-0.94Zm11.509,0.47c-0.05,0.009 -0.096,0.021 -0.141,0.047c-0.104,0.063 -0.108,0.158 -0.188,0.188c-0.112,0.041 -0.265,0.04 -0.281,0.141c-0.014,0.084 0.096,0.111 0.093,0.188c-0.041,0.101 -0.119,0.111 -0.14,0.234c0.139,0.227 0.485,0.003 0.657,-0.046c0.077,-0.022 0.147,0.012 0.188,-0.047c0.047,-0.074 0.012,-0.225 0.047,-0.329c0.038,-0.115 0.155,-0.087 0.141,-0.188c-0.011,-0.101 -0.206,-0.205 -0.376,-0.188Zm-14.892,1.738c0.1,0.121 0.184,0.297 0,0.376c-0.027,0.013 -0.357,0.061 -0.423,0.047c-0.02,-0.003 -0.028,-0.034 -0.047,-0.047c0.144,-0.14 0.32,-0.243 0.47,-0.376Zm0.376,0.47c0.066,0.003 0.111,0.135 0.188,0.141c0.074,0.006 0.191,-0.061 0.235,-0.047c0.115,0.03 0.156,0.244 0.047,0.329c-0.09,0.01 -0.123,-0.108 -0.188,-0.094c-0.186,0.032 -0.237,0.386 -0.376,0.375c-0.131,-0.013 -0.228,-0.28 -0.094,-0.375c0.003,-0.082 -0.052,-0.106 -0.047,-0.188c0.041,-0.052 0.126,-0.149 0.235,-0.141Zm-0.611,0.094c0.039,0 0.034,-0.017 0.047,0c-0.019,0.145 -0.076,0.166 -0.188,0.235c-0.194,0.117 -0.313,0.265 -0.375,0.516c-0.02,0.074 -0.236,0.301 -0.329,0.282c-0.216,-0.046 0.091,-0.454 0.141,-0.516c0.054,-0.069 0.125,-0.112 0.188,-0.188c0.062,-0.077 0.081,-0.239 0.14,-0.282c0.066,-0.047 0.262,-0.053 0.376,-0.047Zm18.51,0.376c0.216,-0.014 0.324,0.244 0.422,0.375c0.082,0.107 0.336,0.256 0.47,0.329c0.077,0.041 0.15,0.103 0.235,0.141c0.089,0.04 0.224,0.092 0.329,0.188c0.105,0.096 0.184,0.242 0.188,0.329c0.003,0.087 -0.061,0.153 -0.047,0.235c0.095,0.015 0.144,-0.081 0.188,-0.188c0.354,0.505 0.656,1.044 0.939,1.597c-0.057,0.036 -0.082,0.071 -0.094,0.141c-0.027,0.153 0.089,0.349 -0.141,0.376c-0.144,0.019 -0.317,-0.144 -0.516,-0.188c-0.082,-0.019 -0.217,0.022 -0.282,0c-0.15,-0.052 -0.107,-0.239 -0.235,-0.329c-0.074,-0.052 -0.258,-0.127 -0.376,-0.141c-0.074,-0.007 -0.111,0.011 -0.188,0c-0.093,-0.01 -0.252,0 -0.329,-0.047c-0.073,-0.046 -0.262,-0.125 -0.281,-0.188c-0.031,-0.101 0.229,-0.244 0.234,-0.328c0.006,-0.066 -0.08,-0.09 -0.094,-0.188c-0.01,-0.061 0.014,-0.15 0,-0.188c-0.019,-0.071 -0.122,-0.139 -0.234,-0.141c-0.099,0 -0.198,0.047 -0.282,0.047c-0.121,0.003 -0.367,-0.061 -0.517,-0.047c-0.09,0.007 -0.15,0.041 -0.235,0.047c-0.238,0.019 -0.378,-0.014 -0.564,0c-0.134,0.007 -0.391,0.083 -0.516,0.141c-0.063,0.03 -0.106,0.1 -0.188,0.141c-0.039,0.019 -0.092,0.025 -0.141,0.047c-0.077,0.035 -0.208,0.121 -0.282,0.141c-0.107,0.027 -0.229,-0.008 -0.423,0c-0.139,0.007 -0.373,-0.022 -0.376,-0.188c-0.003,-0.254 0.464,-0.145 0.705,-0.188c0.09,-0.019 0.125,-0.125 0.235,-0.188c0.052,-0.03 0.092,-0.061 0.141,-0.094c0.082,-0.058 0.221,-0.169 0.235,-0.235c0.01,-0.06 -0.056,-0.144 -0.047,-0.188c0.01,-0.057 0.114,-0.114 0.188,-0.188c0.114,-0.115 0.186,-0.255 0.328,-0.329c0.096,-0.052 0.285,-0.064 0.329,-0.141c0.011,-0.087 -0.003,-0.108 0,-0.188c0.06,-0.054 0.045,-0.083 0.094,-0.093c0.148,-0.033 0.298,0.055 0.47,0.046c0.074,-0.003 0.156,0.006 0.235,-0.046c0.065,-0.044 0.122,-0.109 0.188,-0.141c0.071,-0.039 0.147,-0.136 0.235,-0.141Zm-17.241,0.141c0.036,-0.006 0.097,0.004 0.141,0c0.063,-0.003 0.119,0 0.188,0c0.068,0 0.16,-0.028 0.187,0c-0.043,0.18 -0.468,0.112 -0.61,0.046c0.004,-0.034 0.058,-0.041 0.094,-0.046Zm-0.517,0.328c0.046,0 0.092,-0.019 0.141,0c-0.126,0.107 -0.298,0.167 -0.517,0.235c-0.104,0.033 -0.263,0.068 -0.282,-0.047c-0.022,-0.142 0.095,-0.127 0.188,-0.141c0.12,-0.013 0.331,-0.044 0.47,-0.047Zm17.805,0c-0.091,0.03 -0.134,0.211 0,0.235c0.062,-0.038 0.063,-0.12 0.047,-0.235c-0.036,-0.038 -0.02,-0.01 -0.047,0Zm-0.047,0.376c-0.044,0.014 -0.095,-0.002 -0.141,0.047c0.003,0.153 0.03,0.242 0,0.376c0.087,0.169 0.285,0.068 0.329,-0.047c0.052,-0.284 -0.057,-0.411 -0.188,-0.376Zm1.174,0.752c-0.12,-0.006 -0.211,0.037 -0.282,0.094c0.101,0.164 0.29,0.194 0.517,0.235c0.082,-0.06 0.056,-0.225 0.094,-0.329c-0.099,0 -0.162,0.006 -0.282,0l-0.047,0Zm-23.865,5.778c0.096,0.123 0.2,0.265 0.329,0.329c0.069,0.035 0.148,0.028 0.235,0.047c0.071,0.013 0.12,0.072 0.188,0.094c0.145,0.049 0.355,0.042 0.47,0.094c0.175,0.076 0.272,0.382 0.423,0.47c0.007,0.087 -0.028,0.169 0,0.235c0.071,0.095 0.213,0.125 0.328,0.187c0.14,0.077 0.198,0.269 0.329,0.329c0.047,0.019 0.117,-0.021 0.188,0c0.18,0.055 0.22,0.329 0.376,0.282c0.101,-0.03 0.125,-0.183 0.141,-0.282c0.068,-0.073 0.128,-0.188 0.235,-0.188c0.169,-0.003 0.219,0.21 0.282,0.376c0.035,0.093 0.116,0.184 0.141,0.282c0.041,0.17 0.035,0.651 0,0.752c-0.044,0.125 -0.225,0.192 -0.329,0.329c-0.049,0.065 -0.103,0.144 -0.141,0.188c-0.066,0.081 -0.139,0.114 -0.188,0.187c-0.027,0.041 -0.023,0.131 -0.047,0.188c-0.082,0.175 -0.209,0.307 -0.141,0.517c0.027,0.085 0.141,0.181 0.141,0.282c0,0.12 -0.263,0.151 -0.282,0.282c-0.013,0.095 0.111,0.294 0.141,0.423c0.022,0.095 0.177,0.172 0.235,0.235c0.095,0.106 0.194,0.239 0.282,0.375c0.172,0.265 0.253,0.586 0.422,0.846c0.091,0.134 0.269,0.234 0.329,0.376c0.03,0.071 -0.027,0.216 0,0.282c0.099,0.221 0.578,0.454 0.799,0.563c0.104,0.052 0.186,0.087 0.282,0.141c0.145,0.082 0.443,0.248 0.517,0.376c0.065,0.115 0.108,0.381 0.141,0.564c0.041,0.24 -0.011,0.445 0,0.705c0.007,0.142 0.047,0.233 0.047,0.375c0,0.05 0.002,0.139 0,0.188c-0.003,0.17 0.013,0.345 0,0.517c-0.008,0.093 -0.007,0.203 0,0.282c0.007,0.085 0.088,0.114 0.093,0.188c0.006,0.079 -0.102,0.172 -0.093,0.235c0.019,0.172 0.202,0.311 0.234,0.47c0.028,0.125 0.064,0.413 0.047,0.563c-0.01,0.079 -0.036,0.195 -0.047,0.282c-0.007,0.069 0.011,0.125 0,0.188c-3.745,-2.406 -6.248,-6.586 -6.248,-11.369c0,-0.613 0.062,-1.193 0.141,-1.785Zm5.168,1.363c0.131,-0.061 0.106,0.171 0,0.187c-0.101,0.014 -0.098,-0.141 0,-0.187Z" style="fill:url(#_Linear2);fill-rule:nonzero;"/><defs><linearGradient id="_Linear1" x1="0" y1="0" x2="1" y2="0" gradientUnits="userSpaceOnUse" gradientTransform="matrix(2.31885e-15,-45.0363,37.8697,2.75768e-15,33.3576,54.4153)"><stop offset="0" style="stop-color:#1075f6;stop-opacity:1"/><stop offset="1" style="stop-color:#12c5ff;stop-opacity:1"/></linearGradient><linearGradient id="_Linear2" x1="0" y1="0" x2="1" y2="0" gradientUnits="userSpaceOnUse" gradientTransform="matrix(1.84101e-15,30.0659,-30.0659,1.84101e-15,32,18.5364)"><stop offset="0" style="stop-color:#126c98;stop-opacity:1"/><stop offset="1" style="stop-color:#0b4f94;stop-opacity:1"/></linearGradient></defs></svg>