<?xml version="1.0" encoding="UTF-8" standalone="no"?><!DOCTYPE svg PUBLIC "-//W3C//DTD SVG 1.1//EN" "http://www.w3.org/Graphics/SVG/1.1/DTD/svg11.dtd"><svg width="100%" height="100%" viewBox="0 0 64 64" version="1.1" xmlns="http://www.w3.org/2000/svg" xmlns:xlink="http://www.w3.org/1999/xlink" xml:space="preserve" xmlns:serif="http://www.serif.com/" style="fill-rule:evenodd;clip-rule:evenodd;stroke-linejoin:round;stroke-miterlimit:2;"><g id="folder_B"><path d="M61.122,17.148c0,-2.122 -0.843,-4.157 -2.344,-5.657c-1.5,-1.5 -3.535,-2.343 -5.656,-2.343c-12.631,0 -36.735,0 -46.244,0c-2.209,0 -4,1.791 -4,4c0,7.511 0,23.855 0,33.704c0,2.122 0.843,4.157 2.344,5.657c1.5,1.5 3.535,2.343 5.656,2.343c11.119,0 31.125,0 42.244,0c2.121,0 4.156,-0.843 5.656,-2.343c1.501,-1.5 2.344,-3.535 2.344,-5.657c0,-8.347 0,-21.357 0,-29.704Z" style="fill:#0083d5;"/><path d="M61.122,17.148c0,-2.122 -0.843,-4.157 -2.344,-5.657c-1.5,-1.5 -3.535,-2.343 -5.656,-2.343c-7.292,0 -17.598,0 -22.162,0c-1.478,0 -2.879,0.653 -3.829,1.784c-0.729,0.869 -1.604,1.909 -2.333,2.778c-0.95,1.131 -2.351,1.784 -3.829,1.784c-3.169,0 -8.922,0 -13.091,0c-1.326,0 -2.597,0.527 -3.535,1.465c-0.938,0.937 -1.465,2.209 -1.465,3.535c0,6.646 0,18.466 0,26.358c0,2.122 0.843,4.157 2.344,5.657c1.5,1.5 3.535,2.343 5.656,2.343l42.244,0c2.121,0 4.156,-0.843 5.656,-2.343c1.501,-1.5 2.344,-3.535 2.344,-5.657c0,-8.347 0,-21.357 0,-29.704Z" style="fill:url(#_Linear1);"/></g><path d="M32.825,22.231c-4.337,0.002 -8.265,2.637 -9.913,6.649c-4.184,0.428 -7.403,3.991 -7.407,8.197c0,4.525 3.723,8.248 8.247,8.248l19.384,0c2.961,0 5.359,-2.401 5.359,-5.361c0,-2.025 -1.132,-3.766 -2.789,-4.679c0.737,-0.888 1.14,-2.005 1.14,-3.157c0,-2.715 -2.235,-4.948 -4.948,-4.948l-0.04,0c-1.967,-3.08 -5.379,-4.948 -9.033,-4.949Zm0.525,3.149c4.031,0 7.348,3.317 7.348,7.348c0,4.031 -3.317,7.348 -7.348,7.348c-4.031,0 -7.348,-3.317 -7.348,-7.348c0,-4.031 3.317,-7.348 7.348,-7.348Zm0,2.1c-1.132,0.002 -2.234,0.37 -3.139,1.049l3.694,0c1.543,0 2.594,0.515 2.594,2.474c0,2.285 -1.051,2.775 -2.594,2.775l-1.605,0l0,3.149l-2.089,0c0.905,0.679 2.007,1.048 3.139,1.05c2.879,0 5.249,-2.369 5.249,-5.249c0,-2.879 -2.37,-5.248 -5.249,-5.248Zm-3.149,1.058c-1.319,0.988 -2.098,2.542 -2.1,4.19c0.002,1.648 0.781,3.202 2.1,4.191l0,-3.44l0,-4.941Zm2.099,2.091l0,1.049l1.05,0c0.617,0 1.05,0 1.05,-0.512c0,-0.537 -0.379,-0.537 -1.05,-0.537l-1.05,0Z" style="fill:url(#_Linear2);fill-rule:nonzero;"/><defs><linearGradient id="_Linear1" x1="0" y1="0" x2="1" y2="0" gradientUnits="userSpaceOnUse" gradientTransform="matrix(2.31885e-15,-45.0363,37.8697,2.75768e-15,33.3576,54.4153)"><stop offset="0" style="stop-color:#1075f6;stop-opacity:1"/><stop offset="1" style="stop-color:#12c5ff;stop-opacity:1"/></linearGradient><linearGradient id="_Linear2" x1="0" y1="0" x2="1" y2="0" gradientUnits="userSpaceOnUse" gradientTransform="matrix(-0.153518,23.0941,-23.0941,-0.153518,32.821,22.2309)"><stop offset="0" style="stop-color:#126c98;stop-opacity:1"/><stop offset="1" style="stop-color:#0b4f94;stop-opacity:1"/></linearGradient></defs></svg>