<?xml version="1.0" encoding="UTF-8" standalone="no"?><!DOCTYPE svg PUBLIC "-//W3C//DTD SVG 1.1//EN" "http://www.w3.org/Graphics/SVG/1.1/DTD/svg11.dtd"><svg width="100%" height="100%" viewBox="0 0 64 64" version="1.1" xmlns="http://www.w3.org/2000/svg" xmlns:xlink="http://www.w3.org/1999/xlink" xml:space="preserve" xmlns:serif="http://www.serif.com/" style="fill-rule:evenodd;clip-rule:evenodd;stroke-linejoin:round;stroke-miterlimit:2;"><g id="folder_B"><path d="M61.122,17.148c0,-2.122 -0.843,-4.157 -2.344,-5.657c-1.5,-1.5 -3.535,-2.343 -5.656,-2.343c-12.631,0 -36.735,0 -46.244,0c-2.209,0 -4,1.791 -4,4c0,7.511 0,23.855 0,33.704c0,2.122 0.843,4.157 2.344,5.657c1.5,1.5 3.535,2.343 5.656,2.343c11.119,0 31.125,0 42.244,0c2.121,0 4.156,-0.843 5.656,-2.343c1.501,-1.5 2.344,-3.535 2.344,-5.657c0,-8.347 0,-21.357 0,-29.704Z" style="fill:#0083d5;"/><path d="M61.122,17.148c0,-2.122 -0.843,-4.157 -2.344,-5.657c-1.5,-1.5 -3.535,-2.343 -5.656,-2.343c-7.292,0 -17.598,0 -22.162,0c-1.478,0 -2.879,0.653 -3.829,1.784c-0.729,0.869 -1.604,1.909 -2.333,2.778c-0.95,1.131 -2.351,1.784 -3.829,1.784c-3.169,0 -8.922,0 -13.091,0c-1.326,0 -2.597,0.527 -3.535,1.465c-0.938,0.937 -1.465,2.209 -1.465,3.535c0,6.646 0,18.466 0,26.358c0,2.122 0.843,4.157 2.344,5.657c1.5,1.5 3.535,2.343 5.656,2.343l42.244,0c2.121,0 4.156,-0.843 5.656,-2.343c1.501,-1.5 2.344,-3.535 2.344,-5.657c0,-8.347 0,-21.357 0,-29.704Z" style="fill:url(#_Linear1);"/></g><g id="pictures"><path d="M27.632,24.449c0.379,-0.519 0.983,-0.827 1.626,-0.827l5.826,0c0.621,0 1.208,0.287 1.589,0.778c0.323,0.416 0.722,0.928 1.053,1.353c0.415,0.534 1.054,0.845 1.73,0.842c1.046,-0.004 2.647,-0.011 3.828,-0.016c0.406,-0.001 0.797,0.159 1.085,0.446c0.288,0.287 0.45,0.677 0.45,1.083l0,12.929c0,0.405 -0.161,0.794 -0.448,1.081c-0.287,0.287 -0.676,0.448 -1.081,0.448l-22.58,0c-0.405,0 -0.794,-0.161 -1.081,-0.448c-0.287,-0.287 -0.448,-0.676 -0.448,-1.081l0,-12.935c0,-0.406 0.161,-0.795 0.448,-1.081c0.287,-0.287 0.676,-0.448 1.081,-0.448l4.263,0c0.697,0 1.351,-0.333 1.762,-0.895c0.285,-0.391 0.617,-0.846 0.897,-1.229Zm4.368,4.347c3.031,0 5.492,2.461 5.492,5.492c0,3.031 -2.461,5.492 -5.492,5.492c-3.031,0 -5.492,-2.461 -5.492,-5.492c0,-3.031 2.461,-5.492 5.492,-5.492Zm0,1.064c2.444,0 4.428,1.984 4.428,4.428c0,2.444 -1.984,4.428 -4.428,4.428c-2.444,0 -4.428,-1.984 -4.428,-4.428c0,-2.444 1.984,-4.428 4.428,-4.428Zm6.537,-1.387c0.46,0 0.834,0.374 0.834,0.835c0,0.461 -0.374,0.834 -0.834,0.834c-0.461,0 -0.835,-0.373 -0.835,-0.834c0,-0.461 0.374,-0.835 0.835,-0.835Z" style="fill:url(#_Linear2);"/><path d="M24.563,25.074c0,-0.175 -0.142,-0.316 -0.316,-0.316l-1.764,0c-0.174,0 -0.316,0.141 -0.316,0.316l0,0.633c0,0.174 0.142,0.316 0.316,0.316l1.764,0c0.174,0 0.316,-0.142 0.316,-0.316l0,-0.633Z" style="fill:#126c97;"/></g><defs><linearGradient id="_Linear1" x1="0" y1="0" x2="1" y2="0" gradientUnits="userSpaceOnUse" gradientTransform="matrix(2.31885e-15,-45.0363,37.8697,2.75768e-15,33.3576,54.4153)"><stop offset="0" style="stop-color:#1075f6;stop-opacity:1"/><stop offset="1" style="stop-color:#12c5ff;stop-opacity:1"/></linearGradient><linearGradient id="_Linear2" x1="0" y1="0" x2="1" y2="0" gradientUnits="userSpaceOnUse" gradientTransform="matrix(1.15994e-15,18.9433,-18.9433,1.15994e-15,32,23.6224)"><stop offset="0" style="stop-color:#137098;stop-opacity:1"/><stop offset="0.42" style="stop-color:#106597;stop-opacity:1"/><stop offset="1" style="stop-color:#0b4e94;stop-opacity:1"/></linearGradient></defs></svg>