<?xml version="1.0" encoding="UTF-8" standalone="no"?><!DOCTYPE svg PUBLIC "-//W3C//DTD SVG 1.1//EN" "http://www.w3.org/Graphics/SVG/1.1/DTD/svg11.dtd"><svg width="100%" height="100%" viewBox="0 0 64 64" version="1.1" xmlns="http://www.w3.org/2000/svg" xmlns:xlink="http://www.w3.org/1999/xlink" xml:space="preserve" xmlns:serif="http://www.serif.com/" style="fill-rule:evenodd;clip-rule:evenodd;stroke-linejoin:round;stroke-miterlimit:2;"><g id="folder_B"><path d="M61.122,17.148c0,-2.122 -0.843,-4.157 -2.344,-5.657c-1.5,-1.5 -3.535,-2.343 -5.656,-2.343c-12.631,0 -36.735,0 -46.244,0c-2.209,0 -4,1.791 -4,4c0,7.511 0,23.855 0,33.704c0,2.122 0.843,4.157 2.344,5.657c1.5,1.5 3.535,2.343 5.656,2.343c11.119,0 31.125,0 42.244,0c2.121,0 4.156,-0.843 5.656,-2.343c1.501,-1.5 2.344,-3.535 2.344,-5.657c0,-8.347 0,-21.357 0,-29.704Z" style="fill:#0083d5;"/><path d="M61.122,17.148c0,-2.122 -0.843,-4.157 -2.344,-5.657c-1.5,-1.5 -3.535,-2.343 -5.656,-2.343c-7.292,0 -17.598,0 -22.162,0c-1.478,0 -2.879,0.653 -3.829,1.784c-0.729,0.869 -1.604,1.909 -2.333,2.778c-0.95,1.131 -2.351,1.784 -3.829,1.784c-3.169,0 -8.922,0 -13.091,0c-1.326,0 -2.597,0.527 -3.535,1.465c-0.938,0.937 -1.465,2.209 -1.465,3.535c0,6.646 0,18.466 0,26.358c0,2.122 0.843,4.157 2.344,5.657c1.5,1.5 3.535,2.343 5.656,2.343l42.244,0c2.121,0 4.156,-0.843 5.656,-2.343c1.501,-1.5 2.344,-3.535 2.344,-5.657c0,-8.347 0,-21.357 0,-29.704Z" style="fill:url(#_Linear1);"/></g><path d="M32,20.1c-7.481,0 -13.504,6.023 -13.504,13.504c0,6.031 3.996,11.107 9.433,12.851l0,-2.265c-3.418,0.754 -4.218,-1.503 -4.218,-1.503c-0.559,-1.444 -1.364,-1.557 -1.364,-1.557c-1.116,-0.774 0.083,-0.762 0.083,-0.762c1.233,0.088 1.882,1.29 1.882,1.29c1.095,1.908 2.956,1.358 3.657,1.038c0.111,-0.806 0.35,-2.17 0.701,-2.482c-2.728,-0.316 -4.772,-2.06 -4.772,-6.845c0,-1.362 0.804,-3.153 1.59,-4.025c-0.127,-0.315 -0.551,-2.142 0.119,-3.861c0,0 0.065,-0.02 0.197,-0.027c0.401,-0.018 1.301,0.622 3.06,1.834c1.063,-0.306 2.287,-0.447 3.136,-0.455c0.957,-0.007 1.931,0.158 2.93,0.455c1.76,-1.212 2.885,-1.856 3.283,-1.837l0.004,0c0.133,0.007 0.197,0.027 0.197,0.027c0.672,1.718 0.249,3.549 0.122,3.864c0.789,0.872 1.566,2.663 1.566,4.025c0,4.797 -3.073,6.527 -5.81,6.835c0.44,0.386 0.551,1.15 0.551,2.314c0,1.407 -0.004,2.322 -0.007,2.902l0,1.249c5.835,-1.493 10.668,-6.752 10.668,-13.065c0,-7.481 -6.023,-13.504 -13.504,-13.504Z" style="fill:url(#_Linear2);fill-rule:nonzero;"/><defs><linearGradient id="_Linear1" x1="0" y1="0" x2="1" y2="0" gradientUnits="userSpaceOnUse" gradientTransform="matrix(2.31885e-15,-45.0363,37.8697,2.75768e-15,33.3576,54.4153)"><stop offset="0" style="stop-color:#1075f6;stop-opacity:1"/><stop offset="1" style="stop-color:#12c5ff;stop-opacity:1"/></linearGradient><linearGradient id="_Linear2" x1="0" y1="0" x2="1" y2="0" gradientUnits="userSpaceOnUse" gradientTransform="matrix(1.62692e-15,26.5697,-26.5697,1.62692e-15,32.0673,20.0997)"><stop offset="0" style="stop-color:#126c98;stop-opacity:1"/><stop offset="1" style="stop-color:#0b4f94;stop-opacity:1"/></linearGradient></defs></svg>