<?xml version="1.0" encoding="UTF-8" standalone="no"?><!DOCTYPE svg PUBLIC "-//W3C//DTD SVG 1.1//EN" "http://www.w3.org/Graphics/SVG/1.1/DTD/svg11.dtd"><svg width="100%" height="100%" viewBox="0 0 64 64" version="1.1" xmlns="http://www.w3.org/2000/svg" xmlns:xlink="http://www.w3.org/1999/xlink" xml:space="preserve" xmlns:serif="http://www.serif.com/" style="fill-rule:evenodd;clip-rule:evenodd;stroke-linejoin:round;stroke-miterlimit:2;"><g id="folder_A"><path d="M61.122,15.88c0,-2.762 -2.239,-5 -5,-5c-11.009,0 -37.235,0 -48.244,0c-2.761,0 -5,2.238 -5,5c0,8.128 0,24.117 0,32.246c0,2.761 2.239,5 5,5c11.009,0 37.235,0 48.244,0c2.761,0 5,-2.239 5,-5c0,-8.129 0,-24.118 0,-32.246Z" style="fill:#0083d5;"/><path d="M61.122,20.652c0,-1.326 -0.527,-2.598 -1.465,-3.536c-0.938,-0.937 -2.209,-1.464 -3.535,-1.464c-7.325,0 -20.639,0 -25.58,0c-1.232,0 -2.42,-0.455 -3.337,-1.277c-0.768,-0.689 -1.713,-1.535 -2.481,-2.224c-0.917,-0.822 -2.105,-1.277 -3.337,-1.277c-3.059,0 -9.149,0 -13.509,0c-1.326,0 -2.597,0.527 -3.535,1.465c-0.938,0.937 -1.465,2.209 -1.465,3.535c0,8.13 0,24.122 0,32.252c0,2.761 2.239,5 5,5c11.009,0 37.235,0 48.244,0c2.761,0 5,-2.239 5,-5c0,-7.172 0,-20.303 0,-27.474Z" style="fill:url(#_Linear1);"/></g><path d="M32,21.649c7.09,0 12.847,5.756 12.847,12.847c0,7.09 -5.757,12.846 -12.847,12.846c-7.09,0 -12.847,-5.756 -12.847,-12.846c0,-7.091 5.757,-12.847 12.847,-12.847Zm9.082,19.918l0,-14.161l-4.816,0l-4.273,7.945l-4.259,-7.945l-4.816,0l0,14.161l3.154,0l-0.055,-10.127l4.787,10.145l2.392,0l4.787,-10.145l-0.055,10.127l3.154,0Z" style="fill:url(#_Linear2);"/><defs><linearGradient id="_Linear1" x1="0" y1="0" x2="1" y2="0" gradientUnits="userSpaceOnUse" gradientTransform="matrix(2.31885e-15,-41.6338,37.8697,2.54933e-15,33.3576,52.7218)"><stop offset="0" style="stop-color:#1075f6;stop-opacity:1"/><stop offset="1" style="stop-color:#12c5ff;stop-opacity:1"/></linearGradient><linearGradient id="_Linear2" x1="0" y1="0" x2="1" y2="0" gradientUnits="userSpaceOnUse" gradientTransform="matrix(0.260338,-25.6938,25.6938,0.260338,32,47.3424)"><stop offset="0" style="stop-color:#0c5395;stop-opacity:1"/><stop offset="1" style="stop-color:#126c98;stop-opacity:1"/></linearGradient></defs></svg>