<?xml version="1.0" encoding="UTF-8" standalone="no"?><!DOCTYPE svg PUBLIC "-//W3C//DTD SVG 1.1//EN" "http://www.w3.org/Graphics/SVG/1.1/DTD/svg11.dtd"><svg width="100%" height="100%" viewBox="0 0 64 64" version="1.1" xmlns="http://www.w3.org/2000/svg" xmlns:xlink="http://www.w3.org/1999/xlink" xml:space="preserve" xmlns:serif="http://www.serif.com/" style="fill-rule:evenodd;clip-rule:evenodd;stroke-linejoin:round;stroke-miterlimit:2;"><g id="folder_B"><path d="M61.122,17.148c0,-2.122 -0.843,-4.157 -2.344,-5.657c-1.5,-1.5 -3.535,-2.343 -5.656,-2.343c-12.631,0 -36.735,0 -46.244,0c-2.209,0 -4,1.791 -4,4c0,7.511 0,23.855 0,33.704c0,2.122 0.843,4.157 2.344,5.657c1.5,1.5 3.535,2.343 5.656,2.343c11.119,0 31.125,0 42.244,0c2.121,0 4.156,-0.843 5.656,-2.343c1.501,-1.5 2.344,-3.535 2.344,-5.657c0,-8.347 0,-21.357 0,-29.704Z" style="fill:#0083d5;"/><path d="M61.122,17.148c0,-2.122 -0.843,-4.157 -2.344,-5.657c-1.5,-1.5 -3.535,-2.343 -5.656,-2.343c-7.292,0 -17.598,0 -22.162,0c-1.478,0 -2.879,0.653 -3.829,1.784c-0.729,0.869 -1.604,1.909 -2.333,2.778c-0.95,1.131 -2.351,1.784 -3.829,1.784c-3.169,0 -8.922,0 -13.091,0c-1.326,0 -2.597,0.527 -3.535,1.465c-0.938,0.937 -1.465,2.209 -1.465,3.535c0,6.646 0,18.466 0,26.358c0,2.122 0.843,4.157 2.344,5.657c1.5,1.5 3.535,2.343 5.656,2.343l42.244,0c2.121,0 4.156,-0.843 5.656,-2.343c1.501,-1.5 2.344,-3.535 2.344,-5.657c0,-8.347 0,-21.357 0,-29.704Z" style="fill:url(#_Linear1);"/></g><path id="note" d="M24.131,39.933l0,-0.01c0,0 0.406,-0.086 0.825,-0.175c0.529,-0.112 0.908,-0.579 0.908,-1.12l0,-13.939c0,-0.544 0.383,-1.013 0.916,-1.122c2.446,-0.499 9.121,-1.861 11.774,-2.403c0.272,-0.055 0.554,0.014 0.77,0.19c0.215,0.175 0.34,0.438 0.341,0.715l0.044,18.261c0.008,0.533 -0.143,1.061 -0.437,1.515c-0.392,0.603 -1.008,1.026 -1.711,1.175c-0.547,0.116 -1.122,0.238 -1.668,0.354c-0.703,0.15 -1.438,0.013 -2.041,-0.379c-0.603,-0.391 -1.026,-1.007 -1.175,-1.711c-0.023,-0.104 -0.045,-0.209 -0.067,-0.314c-0.15,-0.704 -0.013,-1.438 0.379,-2.041c0.392,-0.603 1.007,-1.026 1.711,-1.176c0.546,-0.116 1.121,-0.238 1.667,-0.354c0.087,-0.018 0.174,-0.032 0.262,-0.042l0.768,-0.155c0.535,-0.108 0.919,-0.578 0.919,-1.123l0,-8.171c0,-0.233 -0.105,-0.454 -0.285,-0.602c-0.181,-0.148 -0.418,-0.207 -0.647,-0.161c-2.091,0.419 -7.137,1.432 -9.217,1.85c-0.535,0.107 -0.92,0.577 -0.92,1.123l0,12.752c0.014,0.544 -0.136,1.084 -0.437,1.547c-0.392,0.603 -1.007,1.026 -1.711,1.175c-0.546,0.116 -1.121,0.238 -1.667,0.354c-0.704,0.15 -1.438,0.013 -2.041,-0.378c-0.604,-0.392 -1.027,-1.008 -1.176,-1.712c-0.022,-0.104 -0.045,-0.209 -0.067,-0.314c-0.149,-0.704 -0.013,-1.438 0.379,-2.041c0.392,-0.603 1.007,-1.026 1.711,-1.176c0.546,-0.116 1.121,-0.238 1.667,-0.354c0.075,-0.016 0.151,-0.028 0.226,-0.038Z" style="fill:url(#_Linear2);"/><defs><linearGradient id="_Linear1" x1="0" y1="0" x2="1" y2="0" gradientUnits="userSpaceOnUse" gradientTransform="matrix(2.31885e-15,-45.0363,37.8697,2.75768e-15,33.3576,54.4153)"><stop offset="0" style="stop-color:#1075f6;stop-opacity:1"/><stop offset="1" style="stop-color:#12c5ff;stop-opacity:1"/></linearGradient><linearGradient id="_Linear2" x1="0" y1="0" x2="1" y2="0" gradientUnits="userSpaceOnUse" gradientTransform="matrix(1.77928e-15,29.0579,-29.0579,1.77928e-15,30.7429,19.4233)"><stop offset="0" style="stop-color:#137098;stop-opacity:1"/><stop offset="1" style="stop-color:#0b4e94;stop-opacity:1"/></linearGradient></defs></svg>