<?xml version="1.0" encoding="UTF-8" standalone="no"?><!DOCTYPE svg PUBLIC "-//W3C//DTD SVG 1.1//EN" "http://www.w3.org/Graphics/SVG/1.1/DTD/svg11.dtd"><svg width="100%" height="100%" viewBox="0 0 64 64" version="1.1" xmlns="http://www.w3.org/2000/svg" xmlns:xlink="http://www.w3.org/1999/xlink" xml:space="preserve" xmlns:serif="http://www.serif.com/" style="fill-rule:evenodd;clip-rule:evenodd;stroke-linejoin:round;stroke-miterlimit:2;"><g id="folder_B"><path d="M61.122,17.148c0,-2.122 -0.843,-4.157 -2.344,-5.657c-1.5,-1.5 -3.535,-2.343 -5.656,-2.343c-12.631,0 -36.735,0 -46.244,0c-2.209,0 -4,1.791 -4,4c0,7.511 0,23.855 0,33.704c0,2.122 0.843,4.157 2.344,5.657c1.5,1.5 3.535,2.343 5.656,2.343c11.119,0 31.125,0 42.244,0c2.121,0 4.156,-0.843 5.656,-2.343c1.501,-1.5 2.344,-3.535 2.344,-5.657c0,-8.347 0,-21.357 0,-29.704Z" style="fill:#0083d5;"/><path d="M61.122,17.148c0,-2.122 -0.843,-4.157 -2.344,-5.657c-1.5,-1.5 -3.535,-2.343 -5.656,-2.343c-7.292,0 -17.598,0 -22.162,0c-1.478,0 -2.879,0.653 -3.829,1.784c-0.729,0.869 -1.604,1.909 -2.333,2.778c-0.95,1.131 -2.351,1.784 -3.829,1.784c-3.169,0 -8.922,0 -13.091,0c-1.326,0 -2.597,0.527 -3.535,1.465c-0.938,0.937 -1.465,2.209 -1.465,3.535c0,6.646 0,18.466 0,26.358c0,2.122 0.843,4.157 2.344,5.657c1.5,1.5 3.535,2.343 5.656,2.343l42.244,0c2.121,0 4.156,-0.843 5.656,-2.343c1.501,-1.5 2.344,-3.535 2.344,-5.657c0,-8.347 0,-21.357 0,-29.704Z" style="fill:url(#_Linear1);"/></g><g id="Home"><path d="M18.448,29.8l2.403,2.876l11.056,-8.883l11.108,8.928l2.537,-2.921l-13.584,-10.725l-13.52,10.725Z" style="fill:url(#_Linear2);"/><path d="M39.855,19.739c0,-0.354 -0.287,-0.641 -0.641,-0.641l-2.812,0c-0.354,0 -0.641,0.287 -0.641,0.641l0,5.759l4.094,0l0,-5.759Z" style="fill:url(#_Linear3);"/><path d="M20.851,41.73c0,0.851 0.34,1.667 0.943,2.266c0.604,0.6 1.422,0.934 2.273,0.928c4.218,-0.027 11.577,-0.076 15.775,-0.103c1.756,-0.012 3.173,-1.439 3.173,-3.195l0,-11.291l-11.047,-8.723l-11.117,8.188l0,11.93Zm13.73,-8.592l-5.296,0l0,7.522l5.296,0l0,-7.522Z" style="fill:url(#_Linear4);"/></g><defs><linearGradient id="_Linear1" x1="0" y1="0" x2="1" y2="0" gradientUnits="userSpaceOnUse" gradientTransform="matrix(2.31885e-15,-45.0363,37.8697,2.75768e-15,33.3576,54.4153)"><stop offset="0" style="stop-color:#1075f6;stop-opacity:1"/><stop offset="1" style="stop-color:#12c5ff;stop-opacity:1"/></linearGradient><linearGradient id="_Linear2" x1="0" y1="0" x2="1" y2="0" gradientUnits="userSpaceOnUse" gradientTransform="matrix(-0.0931097,25.7244,-25.7244,-0.0931097,32,19.0754)"><stop offset="0" style="stop-color:#137098;stop-opacity:1"/><stop offset="1" style="stop-color:#0b4e94;stop-opacity:1"/></linearGradient><linearGradient id="_Linear3" x1="0" y1="0" x2="1" y2="0" gradientUnits="userSpaceOnUse" gradientTransform="matrix(1.61143e-15,26.3166,-26.3166,1.61143e-15,37.808,18.608)"><stop offset="0" style="stop-color:#137098;stop-opacity:1"/><stop offset="1" style="stop-color:#0b4e94;stop-opacity:1"/></linearGradient><linearGradient id="_Linear4" x1="0" y1="0" x2="1" y2="0" gradientUnits="userSpaceOnUse" gradientTransform="matrix(-0.329696,25.7244,-25.7244,-0.329696,31.9069,19.0754)"><stop offset="0" style="stop-color:#137098;stop-opacity:1"/><stop offset="1" style="stop-color:#0b4e94;stop-opacity:1"/></linearGradient></defs></svg>