<?xml version="1.0" encoding="UTF-8" standalone="no"?><!DOCTYPE svg PUBLIC "-//W3C//DTD SVG 1.1//EN" "http://www.w3.org/Graphics/SVG/1.1/DTD/svg11.dtd"><svg width="100%" height="100%" viewBox="0 0 64 64" version="1.1" xmlns="http://www.w3.org/2000/svg" xmlns:xlink="http://www.w3.org/1999/xlink" xml:space="preserve" xmlns:serif="http://www.serif.com/" style="fill-rule:evenodd;clip-rule:evenodd;stroke-linejoin:round;stroke-miterlimit:2;"><g id="folder_B"><path d="M61.122,17.148c0,-2.122 -0.843,-4.157 -2.344,-5.657c-1.5,-1.5 -3.535,-2.343 -5.656,-2.343c-12.631,0 -36.735,0 -46.244,0c-2.209,0 -4,1.791 -4,4c0,7.511 0,23.855 0,33.704c0,2.122 0.843,4.157 2.344,5.657c1.5,1.5 3.535,2.343 5.656,2.343c11.119,0 31.125,0 42.244,0c2.121,0 4.156,-0.843 5.656,-2.343c1.501,-1.5 2.344,-3.535 2.344,-5.657c0,-8.347 0,-21.357 0,-29.704Z" style="fill:#0083d5;"/><path d="M61.122,17.148c0,-2.122 -0.843,-4.157 -2.344,-5.657c-1.5,-1.5 -3.535,-2.343 -5.656,-2.343c-7.292,0 -17.598,0 -22.162,0c-1.478,0 -2.879,0.653 -3.829,1.784c-0.729,0.869 -1.604,1.909 -2.333,2.778c-0.95,1.131 -2.351,1.784 -3.829,1.784c-3.169,0 -8.922,0 -13.091,0c-1.326,0 -2.597,0.527 -3.535,1.465c-0.938,0.937 -1.465,2.209 -1.465,3.535c0,6.646 0,18.466 0,26.358c0,2.122 0.843,4.157 2.344,5.657c1.5,1.5 3.535,2.343 5.656,2.343l42.244,0c2.121,0 4.156,-0.843 5.656,-2.343c1.501,-1.5 2.344,-3.535 2.344,-5.657c0,-8.347 0,-21.357 0,-29.704Z" style="fill:url(#_Linear1);"/></g><path d="M39.131,21.714c-4.581,0 -5.44,6.962 -2.862,6.962c2.576,0 7.444,-6.962 2.862,-6.962Zm-7.056,1.071c-0.073,0 -0.149,0.007 -0.231,0.016c-2.598,0.327 -1.684,4.721 -0.302,4.804c1.336,0.079 2.802,-4.812 0.53,-4.82l0.003,0Zm-4.501,1.622c-0.159,-0.01 -0.335,0.02 -0.531,0.1c-2.086,0.857 -0.316,4.395 0.852,4.158c1.06,-0.216 1.212,-4.158 -0.321,-4.258Zm-3.406,2.893c-0.181,-0.006 -0.378,0.057 -0.587,0.213c-1.67,1.246 0.563,4.259 1.545,3.791c0.86,-0.408 0.311,-3.958 -0.959,-4.004l0.001,0Zm9.865,2.875c-3.618,-0.062 -8.393,1.773 -9.208,5.465c-0.881,3.991 3.63,9.53 8.336,9.53c2.316,0 4.987,-2.116 5.487,-4.796c0.381,-2.044 -4.491,-1.225 -4.317,0.127c0.21,1.621 -1.175,2.422 -2.531,1.377c-4.318,-3.326 7.15,-4.986 6.393,-9.531c-0.235,-1.414 -1.991,-2.134 -4.162,-2.172l0.002,0Z" style="fill:url(#_Linear2);fill-rule:nonzero;"/><defs><linearGradient id="_Linear1" x1="0" y1="0" x2="1" y2="0" gradientUnits="userSpaceOnUse" gradientTransform="matrix(2.31885e-15,-45.0363,37.8697,2.75768e-15,33.3576,54.4153)"><stop offset="0" style="stop-color:#1075f6;stop-opacity:1"/><stop offset="1" style="stop-color:#12c5ff;stop-opacity:1"/></linearGradient><linearGradient id="_Linear2" x1="0" y1="0" x2="1" y2="0" gradientUnits="userSpaceOnUse" gradientTransform="matrix(1.43627e-15,23.4561,-23.4561,1.43627e-15,32.0599,21.7143)"><stop offset="0" style="stop-color:#126c98;stop-opacity:1"/><stop offset="1" style="stop-color:#0b4f94;stop-opacity:1"/></linearGradient></defs></svg>