<svg style="clip-rule:evenodd;fill-rule:evenodd;stroke-linejoin:round;stroke-miterlimit:2" version="1.1" viewBox="0 0 64 64" xmlns="http://www.w3.org/2000/svg">
 <path d="m61.122 17.148c0-2.122-0.843-4.157-2.344-5.657-1.5-1.5-3.535-2.343-5.656-2.343h-46.244c-2.209 0-4 1.791-4 4v33.704c0 2.122 0.843 4.157 2.344 5.657 1.5 1.5 3.535 2.343 5.656 2.343h42.244c2.121 0 4.156-0.843 5.656-2.343 1.501-1.5 2.344-3.535 2.344-5.657v-29.704z" style="fill:#0083d5"/>
 <path d="m61.122 17.148c0-2.122-0.843-4.157-2.344-5.657-1.5-1.5-3.535-2.343-5.656-2.343h-22.162c-1.478 0-2.879 0.653-3.829 1.784-0.729 0.869-1.604 1.909-2.333 2.778-0.95 1.131-2.351 1.784-3.829 1.784h-13.091c-1.326 0-2.597 0.527-3.535 1.465-0.938 0.937-1.465 2.209-1.465 3.535v26.358c0 2.122 0.843 4.157 2.344 5.657 1.5 1.5 3.535 2.343 5.656 2.343h42.244c2.121 0 4.156-0.843 5.656-2.343 1.501-1.5 2.344-3.535 2.344-5.657v-29.704z" style="fill:url(#_Linear1)"/>
 <path d="m32 39.783l7.191-9.072c0.701-0.883 1.988-1.032 2.871-0.331 0.884 0.7 1.033 1.987 0.332 2.87l-8.782 11.078c-0.405 0.511-1.006 0.776-1.612 0.773-0.606 3e-3 -1.207-0.262-1.612-0.773l-8.781-11.077c-0.701-0.883-0.552-2.17 0.332-2.87 0.883-0.701 2.17-0.552 2.871 0.331l7.19 9.071zm0-10.197l3.644-4.597c0.521-0.657 1.478-0.768 2.135-0.247s0.768 1.478 0.247 2.135l-4.827 6.089c-0.301 0.38-0.748 0.577-1.199 0.575-0.451 2e-3 -0.898-0.195-1.199-0.575l-4.827-6.089c-0.521-0.657-0.41-1.614 0.247-2.135s1.614-0.41 2.135 0.247l3.644 4.597z" style="fill:url(#_Linear2)"/>
 <defs>
  <linearGradient id="_Linear1" x2="1" gradientTransform="matrix(2.31885e-15,-45.0363,37.8697,2.75768e-15,33.3576,54.4153)" gradientUnits="userSpaceOnUse">
   <stop style="stop-color:#1075f6" offset="0"/>
   <stop style="stop-color:#12c5ff" offset="1"/>
  </linearGradient>
  <linearGradient id="_Linear2" x2="1" gradientTransform="matrix(-.0101774 -21.7561 21.7561 -.0101774 1094.3 44.604)" gradientUnits="userSpaceOnUse">
   <stop style="stop-color:#0b4f94" offset="0"/>
   <stop style="stop-color:#126d98" offset="1"/>
  </linearGradient>
 </defs>
</svg>
