<?xml version="1.0" encoding="UTF-8" standalone="no"?><!DOCTYPE svg PUBLIC "-//W3C//DTD SVG 1.1//EN" "http://www.w3.org/Graphics/SVG/1.1/DTD/svg11.dtd"><svg width="100%" height="100%" viewBox="0 0 64 64" version="1.1" xmlns="http://www.w3.org/2000/svg" xmlns:xlink="http://www.w3.org/1999/xlink" xml:space="preserve" xmlns:serif="http://www.serif.com/" style="fill-rule:evenodd;clip-rule:evenodd;stroke-linejoin:round;stroke-miterlimit:2;"><g id="folder_B"><path d="M61.122,17.148c0,-2.122 -0.843,-4.157 -2.344,-5.657c-1.5,-1.5 -3.535,-2.343 -5.656,-2.343c-12.631,0 -36.735,0 -46.244,0c-2.209,0 -4,1.791 -4,4c0,7.511 0,23.855 0,33.704c0,2.122 0.843,4.157 2.344,5.657c1.5,1.5 3.535,2.343 5.656,2.343c11.119,0 31.125,0 42.244,0c2.121,0 4.156,-0.843 5.656,-2.343c1.501,-1.5 2.344,-3.535 2.344,-5.657c0,-8.347 0,-21.357 0,-29.704Z" style="fill:#0083d5;"/><path d="M61.122,17.148c0,-2.122 -0.843,-4.157 -2.344,-5.657c-1.5,-1.5 -3.535,-2.343 -5.656,-2.343c-7.292,0 -17.598,0 -22.162,0c-1.478,0 -2.879,0.653 -3.829,1.784c-0.729,0.869 -1.604,1.909 -2.333,2.778c-0.95,1.131 -2.351,1.784 -3.829,1.784c-3.169,0 -8.922,0 -13.091,0c-1.326,0 -2.597,0.527 -3.535,1.465c-0.938,0.937 -1.465,2.209 -1.465,3.535c0,6.646 0,18.466 0,26.358c0,2.122 0.843,4.157 2.344,5.657c1.5,1.5 3.535,2.343 5.656,2.343l42.244,0c2.121,0 4.156,-0.843 5.656,-2.343c1.501,-1.5 2.344,-3.535 2.344,-5.657c0,-8.347 0,-21.357 0,-29.704Z" style="fill:url(#_Linear1);"/></g><path d="M32.921,25.603c1.366,0 2.676,0.543 3.642,1.509c0.966,0.965 1.508,2.275 1.508,3.641l0,10.805l-15.789,0c-1.365,0 -2.675,-0.542 -3.641,-1.508c-0.966,-0.966 -1.509,-2.276 -1.509,-3.642l0,-10.805l15.789,0Zm13.883,1.68c0,-0.187 -0.1,-0.359 -0.26,-0.447c-0.161,-0.089 -0.355,-0.08 -0.507,0.023c-1.72,1.168 -5.831,3.959 -7.101,4.821c-0.238,0.161 -0.379,0.435 -0.377,0.727c0.006,0.674 0.017,1.912 0.024,2.587c0.002,0.293 0.149,0.564 0.39,0.72c1.275,0.829 5.365,3.485 7.072,4.594c0.152,0.099 0.345,0.105 0.503,0.015c0.158,-0.089 0.256,-0.259 0.256,-0.444l0,-12.596Zm-14.463,1.292l-12.264,0l0,7.125c0,1.693 1.372,3.065 3.065,3.065l11.98,0l0,-7.408c0,-1.536 -1.245,-2.782 -2.781,-2.782Z" style="fill:url(#_Linear2);"/><defs><linearGradient id="_Linear1" x1="0" y1="0" x2="1" y2="0" gradientUnits="userSpaceOnUse" gradientTransform="matrix(2.31885e-15,-45.0363,37.8697,2.75768e-15,33.3576,54.4153)"><stop offset="0" style="stop-color:#1075f6;stop-opacity:1"/><stop offset="1" style="stop-color:#12c5ff;stop-opacity:1"/></linearGradient><linearGradient id="_Linear2" x1="0" y1="0" x2="1" y2="0" gradientUnits="userSpaceOnUse" gradientTransform="matrix(1.05206e-15,-17.1814,17.1814,1.05206e-15,32.3912,42.7846)"><stop offset="0" style="stop-color:#0b4e94;stop-opacity:1"/><stop offset="1" style="stop-color:#136e98;stop-opacity:1"/></linearGradient></defs></svg>