<?xml version="1.0" encoding="UTF-8" standalone="no"?><!DOCTYPE svg PUBLIC "-//W3C//DTD SVG 1.1//EN" "http://www.w3.org/Graphics/SVG/1.1/DTD/svg11.dtd"><svg width="100%" height="100%" viewBox="0 0 64 64" version="1.1" xmlns="http://www.w3.org/2000/svg" xmlns:xlink="http://www.w3.org/1999/xlink" xml:space="preserve" xmlns:serif="http://www.serif.com/" style="fill-rule:evenodd;clip-rule:evenodd;stroke-linejoin:round;stroke-miterlimit:2;"><g id="folder_B"><path d="M61.122,17.148c0,-2.122 -0.843,-4.157 -2.344,-5.657c-1.5,-1.5 -3.535,-2.343 -5.656,-2.343c-12.631,0 -36.735,0 -46.244,0c-2.209,0 -4,1.791 -4,4c0,7.511 0,23.855 0,33.704c0,2.122 0.843,4.157 2.344,5.657c1.5,1.5 3.535,2.343 5.656,2.343c11.119,0 31.125,0 42.244,0c2.121,0 4.156,-0.843 5.656,-2.343c1.501,-1.5 2.344,-3.535 2.344,-5.657c0,-8.347 0,-21.357 0,-29.704Z" style="fill:#0083d5;"/><path d="M61.122,17.148c0,-2.122 -0.843,-4.157 -2.344,-5.657c-1.5,-1.5 -3.535,-2.343 -5.656,-2.343c-7.292,0 -17.598,0 -22.162,0c-1.478,0 -2.879,0.653 -3.829,1.784c-0.729,0.869 -1.604,1.909 -2.333,2.778c-0.95,1.131 -2.351,1.784 -3.829,1.784c-3.169,0 -8.922,0 -13.091,0c-1.326,0 -2.597,0.527 -3.535,1.465c-0.938,0.937 -1.465,2.209 -1.465,3.535c0,6.646 0,18.466 0,26.358c0,2.122 0.843,4.157 2.344,5.657c1.5,1.5 3.535,2.343 5.656,2.343l42.244,0c2.121,0 4.156,-0.843 5.656,-2.343c1.501,-1.5 2.344,-3.535 2.344,-5.657c0,-8.347 0,-21.357 0,-29.704Z" style="fill:url(#_Linear1);"/></g><path d="M27.401,42.403c0.247,1.406 0.887,3.237 1.068,3.599c0.21,0.423 0.468,0.963 1.664,1.229c0.524,0.117 0.992,0.22 1.721,0.637c0.835,0.478 1.678,1.284 1.854,1.358c0.562,0.236 0.839,-0.588 1.165,-0.853c0.054,0.037 -0.581,1.347 -1.147,1.339c-0.596,-0.008 -1.303,-0.997 -2.208,-1.494c-0.636,-0.349 -1.073,-0.316 -1.117,-0.272c-0.215,0.213 -0.205,0.763 0.136,1.165c0.342,0.401 0.491,0.822 -0.272,0.802c-0.763,-0.02 -1.614,0.002 -2.125,-0.01c-0.506,-0.011 -0.137,-0.5 -0.393,-0.342c-0.414,0.257 -1.103,0.272 -1.886,0.252c0.201,-0.562 0.763,-0.341 1.225,-0.883c0.461,-0.542 0.783,-0.53 0.754,-0.792c-0.079,-0.742 -0.141,-1.518 -0.27,-2.243c-0.263,-1.479 -0.157,-2.915 -0.169,-3.492Zm10.391,-0.004c0.072,0.681 0.138,3.183 0.299,4.496c0.041,0.338 0.089,1.271 0.29,1.479c0.816,0.843 2.064,0.555 2.361,1.492c-0.77,-0.3 -0.952,-0.054 -2.056,-0.075c-1.104,-0.02 -3.218,-0.098 -3.66,-0.058c0.201,-0.859 0.484,-0.813 0.811,-1.244c0.313,-0.413 0.107,-1.003 -0.618,-0.727c-0.106,0.04 0.258,-0.618 0.398,-0.798c1.035,-0.066 1.583,-1.205 1.741,-3.398c0.033,-0.466 0.423,-0.609 0.434,-1.167Zm-11.624,-15.769c-0.67,2.064 -2.006,5.558 -2.049,7.431c-0.03,1.338 0.256,3.208 0.898,4.447c0.57,1.1 1.545,2.495 1.859,2.926c0.313,0.432 -0.156,-1.507 -0.321,-2.555c-0.164,-1.048 -0.468,-3.185 -0.499,-3.956c-0.03,-0.77 0.263,-8.76 0.112,-8.293Zm-2.91,-6.938c0,0 0.421,-0.632 1.069,-0.632c0.647,0 1.354,-0.076 1.851,-0.241c0.497,-0.166 1.565,-0.963 2.333,-0.933c0.768,0.03 2.259,0.58 2.995,1.294c0.765,0.742 1.84,1.973 2.76,3.501c1.245,2.066 2.154,2.297 3.334,5.557c0.637,1.762 0.864,4.003 0.869,5.369c0.012,3.049 0.08,5.547 0.329,7.471c0.082,0.638 -1.396,-1.374 -1.648,-2.637c-0.344,-1.722 -0.579,-4.984 -0.934,-6.544c-0.417,-1.836 -1.185,-3.537 -1.204,-4.139c-0.019,-0.602 -0.169,-2.446 -0.752,-3.255c-0.583,-0.809 -2.578,-2.897 -2.785,-3.047c-0.207,-0.151 0.245,-0.527 0.922,-0.226c0.677,0.301 -0.357,-1.28 -0.903,-1.731c-0.546,-0.452 -0.939,-0.436 -1.119,-0.094c-0.358,0.68 0.243,1.048 0.683,1.242c-0.207,0.244 -1.351,0.357 -1.897,0.47c-0.546,0.113 -1.275,0.891 -1.64,1.68c-0.231,-0.306 -0.304,-1.955 -0.881,-2.301c-0.623,-0.373 -1.151,-0.804 -2.013,-0.847c-0.564,-0.028 -1.369,0.043 -1.369,0.043Z" style="fill:url(#_Linear2);"/><defs><linearGradient id="_Linear1" x1="0" y1="0" x2="1" y2="0" gradientUnits="userSpaceOnUse" gradientTransform="matrix(2.31885e-15,-45.0363,37.8697,2.75768e-15,33.3576,54.4153)"><stop offset="0" style="stop-color:#1075f6;stop-opacity:1"/><stop offset="1" style="stop-color:#12c5ff;stop-opacity:1"/></linearGradient><linearGradient id="_Linear2" x1="0" y1="0" x2="1" y2="0" gradientUnits="userSpaceOnUse" gradientTransform="matrix(-0.0734051,-31.6376,31.6376,-0.0734051,33.6088,49.63)"><stop offset="0" style="stop-color:#002d4f;stop-opacity:1"/><stop offset="1" style="stop-color:#0e5a95;stop-opacity:1"/></linearGradient></defs></svg>