<?xml version="1.0" encoding="UTF-8" standalone="no"?><!DOCTYPE svg PUBLIC "-//W3C//DTD SVG 1.1//EN" "http://www.w3.org/Graphics/SVG/1.1/DTD/svg11.dtd"><svg width="100%" height="100%" viewBox="0 0 64 64" version="1.1" xmlns="http://www.w3.org/2000/svg" xmlns:xlink="http://www.w3.org/1999/xlink" xml:space="preserve" xmlns:serif="http://www.serif.com/" style="fill-rule:evenodd;clip-rule:evenodd;stroke-linejoin:round;stroke-miterlimit:2;"><g id="folder_B"><path d="M61.122,17.148c0,-2.122 -0.843,-4.157 -2.344,-5.657c-1.5,-1.5 -3.535,-2.343 -5.656,-2.343c-12.631,0 -36.735,0 -46.244,0c-2.209,0 -4,1.791 -4,4c0,7.511 0,23.855 0,33.704c0,2.122 0.843,4.157 2.344,5.657c1.5,1.5 3.535,2.343 5.656,2.343c11.119,0 31.125,0 42.244,0c2.121,0 4.156,-0.843 5.656,-2.343c1.501,-1.5 2.344,-3.535 2.344,-5.657c0,-8.347 0,-21.357 0,-29.704Z" style="fill:#0083d5;"/><path d="M61.122,17.148c0,-2.122 -0.843,-4.157 -2.344,-5.657c-1.5,-1.5 -3.535,-2.343 -5.656,-2.343c-7.292,0 -17.598,0 -22.162,0c-1.478,0 -2.879,0.653 -3.829,1.784c-0.729,0.869 -1.604,1.909 -2.333,2.778c-0.95,1.131 -2.351,1.784 -3.829,1.784c-3.169,0 -8.922,0 -13.091,0c-1.326,0 -2.597,0.527 -3.535,1.465c-0.938,0.937 -1.465,2.209 -1.465,3.535c0,6.646 0,18.466 0,26.358c0,2.122 0.843,4.157 2.344,5.657c1.5,1.5 3.535,2.343 5.656,2.343l42.244,0c2.121,0 4.156,-0.843 5.656,-2.343c1.501,-1.5 2.344,-3.535 2.344,-5.657c0,-8.347 0,-21.357 0,-29.704Z" style="fill:url(#_Linear1);"/></g><path id="Public" d="M26.808,46.552l-0.004,0c-0.864,0 -1.51,-0.769 -1.335,-1.59l1.134,-6.009c0.079,-0.374 0.244,-0.728 0.483,-1.034l3.118,-4.084l-0.037,-5.531l-4.677,4.224c-1.381,1.121 -2.705,-0.227 -1.528,-1.512c0.008,-0.007 6.427,-5.982 6.427,-5.982l0,-0.001l2.776,-0.724c0.332,-0.073 0.865,-0.131 1.159,0.037l4.836,2.981c1,0.61 1.275,1.095 1.333,2.154l0,3.183c0,0.644 -0.272,1.138 -0.936,1.138c-0.664,0 -0.936,-0.526 -0.936,-1.138l0,-2.957c0,-0.52 -1.082,-0.999 -1.492,-1.231l-2.031,-0.99l0.141,4.307c0.006,0.093 0.238,6.965 0.238,6.965c0.005,0.126 0.038,0.435 0.138,0.512l4.037,3.094c0.675,0.55 0.73,1.294 0.304,1.909c-0.487,0.703 -1.495,0.841 -2.163,0.297l-4.492,-3.557c-0.36,-0.294 -0.586,-0.715 -0.628,-1.17l-0.127,-4.231l-2.669,3.1c-0.145,0.163 -0.218,0.431 -0.266,0.642l-1.471,6.157c-0.136,0.608 -0.691,1.041 -1.332,1.041Zm4.703,-22.835c-1.275,0.067 -2.362,-0.88 -2.43,-2.116c-0.068,-1.234 0.907,-2.29 2.178,-2.357c1.275,-0.067 2.362,0.879 2.431,2.115c0.069,1.235 -0.907,2.291 -2.179,2.358Z" style="fill:url(#_Linear2);"/><defs><linearGradient id="_Linear1" x1="0" y1="0" x2="1" y2="0" gradientUnits="userSpaceOnUse" gradientTransform="matrix(2.31885e-15,-45.0363,37.8697,2.75768e-15,33.3576,54.4153)"><stop offset="0" style="stop-color:#1075f6;stop-opacity:1"/><stop offset="1" style="stop-color:#12c5ff;stop-opacity:1"/></linearGradient><linearGradient id="_Linear2" x1="0" y1="0" x2="1" y2="0" gradientUnits="userSpaceOnUse" gradientTransform="matrix(0.17898,28.3385,-28.3385,0.17898,32.3116,18.3389)"><stop offset="0" style="stop-color:#137098;stop-opacity:1"/><stop offset="1" style="stop-color:#0b4e94;stop-opacity:1"/></linearGradient></defs></svg>