<?xml version="1.0" encoding="UTF-8" standalone="no"?><!DOCTYPE svg PUBLIC "-//W3C//DTD SVG 1.1//EN" "http://www.w3.org/Graphics/SVG/1.1/DTD/svg11.dtd"><svg width="100%" height="100%" viewBox="0 0 64 64" version="1.1" xmlns="http://www.w3.org/2000/svg" xmlns:xlink="http://www.w3.org/1999/xlink" xml:space="preserve" xmlns:serif="http://www.serif.com/" style="fill-rule:evenodd;clip-rule:evenodd;stroke-linejoin:round;stroke-miterlimit:2;"><g id="folder_B"><path d="M61.122,17.148c0,-2.122 -0.843,-4.157 -2.344,-5.657c-1.5,-1.5 -3.535,-2.343 -5.656,-2.343c-12.631,0 -36.735,0 -46.244,0c-2.209,0 -4,1.791 -4,4c0,7.511 0,23.855 0,33.704c0,2.122 0.843,4.157 2.344,5.657c1.5,1.5 3.535,2.343 5.656,2.343c11.119,0 31.125,0 42.244,0c2.121,0 4.156,-0.843 5.656,-2.343c1.501,-1.5 2.344,-3.535 2.344,-5.657c0,-8.347 0,-21.357 0,-29.704Z" style="fill:#0083d5;"/><path d="M61.122,17.148c0,-2.122 -0.843,-4.157 -2.344,-5.657c-1.5,-1.5 -3.535,-2.343 -5.656,-2.343c-7.292,0 -17.598,0 -22.162,0c-1.478,0 -2.879,0.653 -3.829,1.784c-0.729,0.869 -1.604,1.909 -2.333,2.778c-0.95,1.131 -2.351,1.784 -3.829,1.784c-3.169,0 -8.922,0 -13.091,0c-1.326,0 -2.597,0.527 -3.535,1.465c-0.938,0.937 -1.465,2.209 -1.465,3.535c0,6.646 0,18.466 0,26.358c0,2.122 0.843,4.157 2.344,5.657c1.5,1.5 3.535,2.343 5.656,2.343l42.244,0c2.121,0 4.156,-0.843 5.656,-2.343c1.501,-1.5 2.344,-3.535 2.344,-5.657c0,-8.347 0,-21.357 0,-29.704Z" style="fill:url(#_Linear1);"/></g><path d="M32.907,19.105c-0.604,-0.042 -1.21,-0.042 -1.814,0l-0.708,2.942c-0.67,0.109 -1.328,0.285 -1.963,0.526l-2.084,-2.194c-0.544,0.265 -1.069,0.569 -1.571,0.907l0.858,2.902c-0.526,0.429 -1.008,0.911 -1.437,1.437l-2.902,-0.858c-0.338,0.502 -0.642,1.027 -0.907,1.571l2.194,2.084c-0.241,0.635 -0.417,1.293 -0.526,1.963l-2.942,0.708c-0.042,0.604 -0.042,1.21 0,1.814l2.942,0.708c0.109,0.67 0.285,1.328 0.526,1.963l-2.194,2.084c0.265,0.544 0.569,1.069 0.907,1.571l2.902,-0.858c0.429,0.526 0.911,1.008 1.437,1.437l-0.858,2.902c0.502,0.338 1.027,0.642 1.571,0.907l2.084,-2.194c0.635,0.241 1.293,0.417 1.963,0.526l0.708,2.942c0.604,0.042 1.21,0.042 1.814,0l0.708,-2.942c0.67,-0.109 1.328,-0.285 1.963,-0.526l2.084,2.194c0.544,-0.265 1.069,-0.569 1.571,-0.907l-0.858,-2.902c0.526,-0.429 1.008,-0.911 1.437,-1.437l2.902,0.858c0.338,-0.502 0.642,-1.027 0.907,-1.571l-2.194,-2.084c0.241,-0.635 0.417,-1.293 0.526,-1.963l2.942,-0.708c0.042,-0.604 0.042,-1.21 0,-1.814l-2.942,-0.708c-0.109,-0.67 -0.285,-1.328 -0.526,-1.963l2.194,-2.084c-0.265,-0.544 -0.569,-1.069 -0.907,-1.571l-2.902,0.858c-0.429,-0.526 -0.911,-1.008 -1.437,-1.437l0.858,-2.902c-0.502,-0.338 -1.027,-0.642 -1.571,-0.907l-2.084,2.194c-0.635,-0.241 -1.293,-0.417 -1.963,-0.526l-0.708,-2.942Zm-0.907,5.451c4.108,0 7.444,3.336 7.444,7.444c0,4.108 -3.336,7.444 -7.444,7.444c-4.108,0 -7.444,-3.336 -7.444,-7.444c0,-4.108 3.336,-7.444 7.444,-7.444Z" style="fill:url(#_Linear2);"/><defs><linearGradient id="_Linear1" x1="0" y1="0" x2="1" y2="0" gradientUnits="userSpaceOnUse" gradientTransform="matrix(2.31885e-15,-45.0363,37.8697,2.75768e-15,33.3576,54.4153)"><stop offset="0" style="stop-color:#1075f6;stop-opacity:1"/><stop offset="1" style="stop-color:#12c5ff;stop-opacity:1"/></linearGradient><linearGradient id="_Linear2" x1="0" y1="0" x2="1" y2="0" gradientUnits="userSpaceOnUse" gradientTransform="matrix(-0.103653,25.8533,-25.8533,-0.103653,31.1205,19.0734)"><stop offset="0" style="stop-color:#137098;stop-opacity:1"/><stop offset="0.42" style="stop-color:#106597;stop-opacity:1"/><stop offset="1" style="stop-color:#0b4e94;stop-opacity:1"/></linearGradient></defs></svg>