<?xml version="1.0" encoding="UTF-8" standalone="no"?><!DOCTYPE svg PUBLIC "-//W3C//DTD SVG 1.1//EN" "http://www.w3.org/Graphics/SVG/1.1/DTD/svg11.dtd"><svg width="100%" height="100%" viewBox="0 0 64 64" version="1.1" xmlns="http://www.w3.org/2000/svg" xmlns:xlink="http://www.w3.org/1999/xlink" xml:space="preserve" xmlns:serif="http://www.serif.com/" style="fill-rule:evenodd;clip-rule:evenodd;stroke-linejoin:round;stroke-miterlimit:2;"><g id="folder_B"><path d="M61.122,17.148c0,-2.122 -0.843,-4.157 -2.344,-5.657c-1.5,-1.5 -3.535,-2.343 -5.656,-2.343c-12.631,0 -36.735,0 -46.244,0c-2.209,0 -4,1.791 -4,4c0,7.511 0,23.855 0,33.704c0,2.122 0.843,4.157 2.344,5.657c1.5,1.5 3.535,2.343 5.656,2.343c11.119,0 31.125,0 42.244,0c2.121,0 4.156,-0.843 5.656,-2.343c1.501,-1.5 2.344,-3.535 2.344,-5.657c0,-8.347 0,-21.357 0,-29.704Z" style="fill:#0083d5;"/><path d="M61.122,17.148c0,-2.122 -0.843,-4.157 -2.344,-5.657c-1.5,-1.5 -3.535,-2.343 -5.656,-2.343c-7.292,0 -17.598,0 -22.162,0c-1.478,0 -2.879,0.653 -3.829,1.784c-0.729,0.869 -1.604,1.909 -2.333,2.778c-0.95,1.131 -2.351,1.784 -3.829,1.784c-3.169,0 -8.922,0 -13.091,0c-1.326,0 -2.597,0.527 -3.535,1.465c-0.938,0.937 -1.465,2.209 -1.465,3.535c0,6.646 0,18.466 0,26.358c0,2.122 0.843,4.157 2.344,5.657c1.5,1.5 3.535,2.343 5.656,2.343l42.244,0c2.121,0 4.156,-0.843 5.656,-2.343c1.501,-1.5 2.344,-3.535 2.344,-5.657c0,-8.347 0,-21.357 0,-29.704Z" style="fill:url(#_Linear1);"/></g><path d="M36.282,41.683c0.042,0.958 0.04,1.909 -0.091,2.855c-0.107,0.752 -0.189,1.504 -0.284,2.256c-0.013,0.126 0,0.24 0.12,0.329c0.468,0.341 0.822,0.846 1.429,1.004c0.139,0.032 0.246,0.152 0.278,0.335c-0.626,0 -1.239,0.032 -1.808,-0.259c-0.076,0.323 -0.101,0.348 -0.424,0.348c-0.607,0 -1.207,0.006 -1.808,0.006c-0.088,0 -0.177,0.007 -0.265,-0.006c-0.304,-0.044 -0.392,-0.209 -0.247,-0.474c0.07,-0.127 0.165,-0.234 0.247,-0.354c0.17,-0.24 0.234,-0.499 0.183,-0.784c-0.038,-0.202 -0.133,-0.278 -0.329,-0.227c-0.297,0.082 -0.613,0.151 -0.872,0.31c-0.379,0.227 -0.721,0.537 -1.081,0.802c-0.228,0.171 -0.455,0.335 -0.696,0.48c-0.177,0.108 -0.366,0.089 -0.543,-0.044c-0.373,-0.278 -0.588,-0.657 -0.772,-1.062c0.013,-0.012 0.026,-0.025 0.032,-0.037c0.057,0.063 0.108,0.12 0.158,0.183c0.114,0.139 0.209,0.284 0.329,0.411c0.215,0.227 0.43,0.24 0.683,0.056c0.151,-0.113 0.303,-0.233 0.455,-0.36c0.828,-0.682 1.732,-1.226 2.813,-1.428c0.835,-0.152 1.397,-0.645 1.65,-1.46c0.259,-0.84 0.506,-1.681 0.759,-2.528c0.023,-0.083 0.04,-0.166 0.055,-0.249l0.018,-0.099c0.003,-0.017 0.006,-0.033 0.009,-0.05l0.002,0.046Zm-9.732,-0.021c-0.056,0.967 -0.094,1.915 -0.164,2.857c-0.05,0.72 -0.152,1.434 -0.221,2.149c-0.032,0.354 -0.228,0.594 -0.537,0.739c-0.361,0.164 -0.74,0.303 -1.113,0.455c-0.247,0.101 -0.487,0.209 -0.626,0.455c-0.025,0.044 -0.051,0.101 -0.076,0.145c0.019,0.019 0.032,0.032 0.038,0.032c0.424,-0.158 0.854,-0.089 1.283,-0.063c0.367,0.025 0.74,0.012 1.107,0.012c0.923,-0.012 1.839,-0.031 2.762,-0.05c0.038,0 0.076,-0.006 0.133,-0.006c-0.05,-0.291 -0.152,-0.544 -0.354,-0.752c-0.107,-0.114 -0.221,-0.222 -0.329,-0.335c-0.057,-0.064 -0.107,-0.139 -0.145,-0.215c-0.063,-0.158 -0.082,-0.316 0.038,-0.462c0.12,-0.145 0.284,-0.139 0.449,-0.107c0.057,0.013 0.114,0.025 0.17,0.044l0.045,-0.044c-0.133,-0.228 -0.266,-0.461 -0.405,-0.683c-0.012,-0.019 -0.05,-0.031 -0.082,-0.038c-0.563,-0.075 -0.872,-0.448 -1.087,-0.929c-0.285,-0.638 -0.38,-1.32 -0.443,-2.003c-0.025,-0.265 -0.076,-0.518 -0.228,-0.746c-0.069,-0.151 -0.132,-0.297 -0.215,-0.455Zm10.86,-14.897c-0.321,-0.762 -1.343,-2.814 -1.628,-2.958c0.056,0.248 0.597,2.611 0.644,2.958c0.196,1.434 1.031,4.988 0.984,6.293c-0.049,1.397 0.065,2.607 -0.138,3.877c-0.183,1.157 -0.373,2.307 -0.556,3.464c-0.012,0.075 0,0.157 0,0.259c0.044,-0.026 0.07,-0.038 0.082,-0.051c0.652,-0.904 1.277,-1.826 1.783,-2.825c0.455,-0.897 0.757,-1.802 0.884,-2.794c0.183,-1.397 0.103,-2.805 -0.302,-4.12c-0.417,-1.346 -1.481,-3.597 -1.753,-4.103Zm-2.287,-8.252c-0.442,0.133 -0.891,0.241 -1.328,0.399c-0.802,0.29 -1.409,0.84 -1.966,1.472c-0.708,0.803 -1.34,1.649 -1.915,2.553c-0.392,0.613 -0.993,1.154 -1.448,1.729c-1.226,1.549 -2.638,3.635 -3.043,5.55c-0.233,1.125 -0.628,2.221 -0.641,3.371c-0.012,1.245 -0.019,2.497 -0.076,3.741c-0.044,1.024 -0.221,3.192 -0.221,3.312c0.101,-0.082 1.933,-1.965 2.084,-3.084c0.178,-1.371 0.361,-2.743 0.532,-4.114c0.151,-1.258 0.474,-2.477 0.878,-3.678c0.184,-0.544 0.367,-1.093 0.487,-1.656c0.108,-0.493 0.108,-1.005 0.177,-1.51c0.114,-0.816 1.068,-1.784 1.656,-2.397c0.708,-0.733 1.398,-1.491 2.093,-2.237c0.057,-0.063 0.139,-0.177 0.12,-0.221c-0.032,-0.076 -0.139,-0.158 -0.228,-0.165c-0.177,-0.018 -0.36,0.007 -0.537,0.026c-0.095,0.012 -0.19,0.057 -0.335,0.101c0.025,-0.133 0.025,-0.228 0.063,-0.303c0.278,-0.569 0.632,-1.081 1.145,-1.473c0.056,-0.044 0.113,-0.076 0.177,-0.107c0.265,-0.139 0.486,-0.127 0.625,0.019c0.19,0.195 0.247,0.543 0.089,0.764c-0.101,0.146 -0.259,0.247 -0.392,0.36c-0.063,0.051 -0.152,0.089 -0.284,0.158c0.177,0.07 0.297,0.14 0.429,0.171c0.316,0.076 0.633,0.164 0.955,0.19c0.657,0.05 1.113,0.41 1.492,0.903c0.171,0.222 0.316,0.462 0.493,0.727c0.051,-0.17 0.095,-0.322 0.145,-0.48c0.146,-0.468 0.285,-0.929 0.43,-1.39c0.026,-0.076 0.089,-0.158 0.158,-0.209c0.576,-0.386 1.151,-0.809 1.878,-0.847c0.455,-0.025 0.917,0.013 1.372,0.025l0,-0.037c-0.057,-0.051 -0.114,-0.095 -0.164,-0.146c-0.266,-0.291 -0.601,-0.411 -0.987,-0.417c-0.695,-0.013 -1.384,-0.069 -2.016,-0.417c-0.493,-0.272 -0.987,-0.537 -1.537,-0.676c-0.113,-0.007 -0.24,-0.007 -0.36,-0.007Z" style="fill:url(#_Linear2);"/><defs><linearGradient id="_Linear1" x1="0" y1="0" x2="1" y2="0" gradientUnits="userSpaceOnUse" gradientTransform="matrix(2.31885e-15,-45.0363,37.8697,2.75768e-15,33.3576,54.4153)"><stop offset="0" style="stop-color:#1075f6;stop-opacity:1"/><stop offset="1" style="stop-color:#12c5ff;stop-opacity:1"/></linearGradient><linearGradient id="_Linear2" x1="0" y1="0" x2="1" y2="0" gradientUnits="userSpaceOnUse" gradientTransform="matrix(-2.69902,29.2275,-29.2275,-2.69902,-8510.14,-769.756)"><stop offset="0" style="stop-color:#126a98;stop-opacity:1"/><stop offset="1" style="stop-color:#0b5094;stop-opacity:1"/></linearGradient></defs></svg>