<?xml version="1.0" encoding="UTF-8" standalone="no"?><!DOCTYPE svg PUBLIC "-//W3C//DTD SVG 1.1//EN" "http://www.w3.org/Graphics/SVG/1.1/DTD/svg11.dtd"><svg width="100%" height="100%" viewBox="0 0 64 64" version="1.1" xmlns="http://www.w3.org/2000/svg" xmlns:xlink="http://www.w3.org/1999/xlink" xml:space="preserve" xmlns:serif="http://www.serif.com/" style="fill-rule:evenodd;clip-rule:evenodd;stroke-linejoin:round;stroke-miterlimit:2;"><g id="folder_B"><path d="M61.122,17.148c0,-2.122 -0.843,-4.157 -2.344,-5.657c-1.5,-1.5 -3.535,-2.343 -5.656,-2.343c-12.631,0 -36.735,0 -46.244,0c-2.209,0 -4,1.791 -4,4c0,7.511 0,23.855 0,33.704c0,2.122 0.843,4.157 2.344,5.657c1.5,1.5 3.535,2.343 5.656,2.343c11.119,0 31.125,0 42.244,0c2.121,0 4.156,-0.843 5.656,-2.343c1.501,-1.5 2.344,-3.535 2.344,-5.657c0,-8.347 0,-21.357 0,-29.704Z" style="fill:#0083d5;"/><path d="M61.122,17.148c0,-2.122 -0.843,-4.157 -2.344,-5.657c-1.5,-1.5 -3.535,-2.343 -5.656,-2.343c-7.292,0 -17.598,0 -22.162,0c-1.478,0 -2.879,0.653 -3.829,1.784c-0.729,0.869 -1.604,1.909 -2.333,2.778c-0.95,1.131 -2.351,1.784 -3.829,1.784c-3.169,0 -8.922,0 -13.091,0c-1.326,0 -2.597,0.527 -3.535,1.465c-0.938,0.937 -1.465,2.209 -1.465,3.535c0,6.646 0,18.466 0,26.358c0,2.122 0.843,4.157 2.344,5.657c1.5,1.5 3.535,2.343 5.656,2.343l42.244,0c2.121,0 4.156,-0.843 5.656,-2.343c1.501,-1.5 2.344,-3.535 2.344,-5.657c0,-8.347 0,-21.357 0,-29.704Z" style="fill:url(#_Linear1);"/></g><path d="M32.314,45.178c-3.649,0 -6.42,-0.86 -8.311,-2.58c-1.891,-1.72 -2.95,-3.958 -3.178,-6.714c-0.038,-0.722 -0.057,-1.54 -0.057,-2.452c0,-0.969 0.019,-1.777 0.057,-2.423c0.133,-1.577 0.622,-3.079 1.468,-4.504c0.846,-1.426 2.067,-2.59 3.663,-3.493c1.597,-0.902 3.526,-1.354 5.787,-1.354c3.992,0 6.833,0.841 8.524,2.523c1.692,1.682 2.661,3.958 2.908,6.828c0.038,0.57 0.057,1.083 0.057,1.539c0,0.533 -0.019,1.179 -0.057,1.939c-0.057,0.912 -0.323,1.706 -0.798,2.38c-0.475,0.675 -1.069,1.184 -1.782,1.526c-0.712,0.342 -1.439,0.513 -2.181,0.513c-0.874,0 -1.644,-0.128 -2.309,-0.385c-0.665,-0.257 -1.15,-0.565 -1.454,-0.927c-0.285,0.476 -0.689,0.86 -1.211,1.155c-0.523,0.295 -1.373,0.442 -2.552,0.442c-1.406,0 -2.509,-0.528 -3.307,-1.582c-0.798,-1.055 -1.197,-2.466 -1.197,-4.234c0,-1.767 0.38,-3.183 1.14,-4.248c0.76,-1.064 1.834,-1.596 3.222,-1.596c0.684,0 1.244,0.1 1.682,0.299c0.437,0.2 0.817,0.518 1.14,0.955l0,-1.026l3.592,0.071l0,6.201c0,0.456 0.105,0.808 0.314,1.055c0.209,0.247 0.522,0.37 0.94,0.37c0.818,0 1.226,-0.465 1.226,-1.397l0,-1.482c0,-0.627 -0.009,-1.102 -0.028,-1.425c-0.076,-1.464 -0.361,-2.628 -0.856,-3.493c-0.494,-0.865 -1.301,-1.506 -2.423,-1.924c-1.121,-0.418 -2.651,-0.627 -4.59,-0.627c-2.337,0 -4.091,0.541 -5.259,1.625c-1.169,1.083 -1.858,2.556 -2.067,4.419c-0.057,0.475 -0.086,1.225 -0.086,2.252c0,1.007 0.029,1.786 0.086,2.337c0.209,1.939 0.945,3.421 2.209,4.448c1.264,1.026 3.16,1.539 5.688,1.539c1.501,0 9.402,-0.043 9.402,-0.043l0.057,3.493l-9.459,0Zm-0.571,-9.437c0.609,0 1.065,-0.171 1.369,-0.513c0.304,-0.342 0.456,-0.96 0.456,-1.853c0,-0.874 -0.157,-1.492 -0.47,-1.853c-0.314,-0.361 -0.765,-0.542 -1.355,-0.542c-1.197,0 -1.796,0.799 -1.796,2.395c0,0.874 0.157,1.487 0.471,1.839c0.313,0.352 0.755,0.527 1.325,0.527Z" style="fill:url(#_Linear2);fill-rule:nonzero;"/><defs><linearGradient id="_Linear1" x1="0" y1="0" x2="1" y2="0" gradientUnits="userSpaceOnUse" gradientTransform="matrix(2.31885e-15,-45.0363,37.8697,2.75768e-15,33.3576,54.4153)"><stop offset="0" style="stop-color:#1075f6;stop-opacity:1"/><stop offset="1" style="stop-color:#12c5ff;stop-opacity:1"/></linearGradient><linearGradient id="_Linear2" x1="0" y1="0" x2="1" y2="0" gradientUnits="userSpaceOnUse" gradientTransform="matrix(-0.220612,23.5194,-23.5194,-0.220612,33.216,21.6582)"><stop offset="0" style="stop-color:#126c98;stop-opacity:1"/><stop offset="1" style="stop-color:#0b4f94;stop-opacity:1"/></linearGradient></defs></svg>