<?xml version="1.0" encoding="UTF-8" standalone="no"?><!DOCTYPE svg PUBLIC "-//W3C//DTD SVG 1.1//EN" "http://www.w3.org/Graphics/SVG/1.1/DTD/svg11.dtd"><svg width="100%" height="100%" viewBox="0 0 64 64" version="1.1" xmlns="http://www.w3.org/2000/svg" xmlns:xlink="http://www.w3.org/1999/xlink" xml:space="preserve" xmlns:serif="http://www.serif.com/" style="fill-rule:evenodd;clip-rule:evenodd;stroke-linejoin:round;stroke-miterlimit:2;"><g id="folder_B"><path d="M61.122,17.148c0,-2.122 -0.843,-4.157 -2.344,-5.657c-1.5,-1.5 -3.535,-2.343 -5.656,-2.343c-12.631,0 -36.735,0 -46.244,0c-2.209,0 -4,1.791 -4,4c0,7.511 0,23.855 0,33.704c0,2.122 0.843,4.157 2.344,5.657c1.5,1.5 3.535,2.343 5.656,2.343c11.119,0 31.125,0 42.244,0c2.121,0 4.156,-0.843 5.656,-2.343c1.501,-1.5 2.344,-3.535 2.344,-5.657c0,-8.347 0,-21.357 0,-29.704Z" style="fill:#0083d5;"/><path d="M61.122,17.148c0,-2.122 -0.843,-4.157 -2.344,-5.657c-1.5,-1.5 -3.535,-2.343 -5.656,-2.343c-7.292,0 -17.598,0 -22.162,0c-1.478,0 -2.879,0.653 -3.829,1.784c-0.729,0.869 -1.604,1.909 -2.333,2.778c-0.95,1.131 -2.351,1.784 -3.829,1.784c-3.169,0 -8.922,0 -13.091,0c-1.326,0 -2.597,0.527 -3.535,1.465c-0.938,0.937 -1.465,2.209 -1.465,3.535c0,6.646 0,18.466 0,26.358c0,2.122 0.843,4.157 2.344,5.657c1.5,1.5 3.535,2.343 5.656,2.343l42.244,0c2.121,0 4.156,-0.843 5.656,-2.343c1.501,-1.5 2.344,-3.535 2.344,-5.657c0,-8.347 0,-21.357 0,-29.704Z" style="fill:url(#_Linear1);"/></g><path d="M24.981,19.023c-0.555,-0.039 -1.111,-0.039 -1.666,0l-0.65,2.702c-0.616,0.1 -1.22,0.261 -1.803,0.483l-1.914,-2.015c-0.5,0.244 -0.982,0.522 -1.443,0.833l0.788,2.665c-0.483,0.394 -0.925,0.836 -1.32,1.32l-2.664,-0.788c-0.312,0.461 -0.59,0.943 -0.834,1.443l2.015,1.914c-0.221,0.583 -0.383,1.187 -0.483,1.802l-2.702,0.651c-0.039,0.554 -0.039,1.111 0,1.666l2.702,0.65c0.1,0.616 0.262,1.22 0.483,1.803l-2.015,1.913c0.244,0.5 0.522,0.983 0.834,1.444l2.664,-0.788c0.395,0.483 0.837,0.925 1.32,1.319l-0.788,2.665c0.461,0.311 0.943,0.59 1.443,0.833l1.914,-2.015c0.583,0.222 1.187,0.384 1.803,0.484l0.65,2.701c0.555,0.039 1.111,0.039 1.666,0l0.65,-2.701c0.616,-0.1 1.22,-0.262 1.803,-0.484l1.914,2.015c0.5,-0.243 0.982,-0.522 1.443,-0.833l-0.788,-2.665c0.483,-0.394 0.925,-0.836 1.32,-1.319l2.665,0.788c0.311,-0.461 0.589,-0.944 0.833,-1.444l-2.015,-1.913c0.221,-0.583 0.383,-1.187 0.483,-1.803l2.702,-0.65c0.039,-0.555 0.039,-1.112 0,-1.666l-2.702,-0.651c-0.1,-0.615 -0.262,-1.219 -0.483,-1.802l2.015,-1.914c-0.244,-0.5 -0.522,-0.982 -0.833,-1.443l-2.665,0.788c-0.395,-0.484 -0.837,-0.926 -1.32,-1.32l0.788,-2.665c-0.461,-0.311 -0.943,-0.589 -1.443,-0.833l-1.914,2.015c-0.583,-0.222 -1.187,-0.383 -1.803,-0.483l-0.65,-2.702Zm-0.833,5.006c3.773,0 6.836,3.064 6.836,6.837c0,3.773 -3.063,6.836 -6.836,6.836c-3.773,0 -6.836,-3.063 -6.836,-6.836c0,-3.773 3.063,-6.837 6.836,-6.837Z" style="fill:url(#_Linear2);"/><path d="M42.653,29.134c-0.425,-0.001 -0.851,0.028 -1.272,0.087l-0.356,2.097c-0.465,0.109 -0.918,0.264 -1.352,0.463l-1.567,-1.439c-0.369,0.212 -0.723,0.45 -1.059,0.711l0.741,1.995c-0.349,0.327 -0.664,0.687 -0.94,1.077l-2.077,-0.463c-0.213,0.368 -0.401,0.751 -0.561,1.146l1.639,1.357c-0.139,0.457 -0.231,0.927 -0.275,1.402l-2.03,0.637c-0.001,0.426 0.028,0.851 0.086,1.273l2.098,0.356c0.108,0.465 0.264,0.918 0.463,1.352l-1.439,1.567c0.212,0.369 0.45,0.723 0.711,1.059l1.995,-0.741c0.326,0.349 0.687,0.664 1.077,0.94l-0.463,2.076c0.368,0.214 0.751,0.402 1.145,0.562l1.357,-1.639c0.457,0.139 0.927,0.231 1.403,0.275l0.637,2.03c0.426,0.001 0.851,-0.028 1.273,-0.087l0.356,-2.097c0.465,-0.109 0.918,-0.264 1.352,-0.463l1.567,1.439c0.369,-0.212 0.723,-0.45 1.059,-0.711l-0.741,-1.995c0.349,-0.326 0.663,-0.687 0.939,-1.077l2.077,0.463c0.214,-0.368 0.401,-0.751 0.561,-1.146l-1.638,-1.357c0.138,-0.457 0.231,-0.926 0.275,-1.402l2.03,-0.637c0.001,-0.426 -0.028,-0.851 -0.087,-1.273l-2.098,-0.356c-0.108,-0.465 -0.263,-0.918 -0.463,-1.352l1.44,-1.567c-0.212,-0.369 -0.45,-0.723 -0.712,-1.059l-1.994,0.741c-0.327,-0.349 -0.688,-0.664 -1.077,-0.94l0.463,-2.076c-0.368,-0.214 -0.751,-0.402 -1.146,-0.562l-1.357,1.639c-0.457,-0.139 -0.927,-0.231 -1.402,-0.275l-0.638,-2.03Zm-0.375,3.868c2.882,-0.197 5.382,1.984 5.578,4.866c0.196,2.882 -1.984,5.382 -4.866,5.578c-2.883,0.197 -5.382,-1.984 -5.579,-4.866c-0.196,-2.882 1.984,-5.382 4.867,-5.578Z" style="fill:url(#_Linear3);"/><defs><linearGradient id="_Linear1" x1="0" y1="0" x2="1" y2="0" gradientUnits="userSpaceOnUse" gradientTransform="matrix(2.31885e-15,-45.0363,37.8697,2.75768e-15,33.3576,54.4153)"><stop offset="0" style="stop-color:#1075f6;stop-opacity:1"/><stop offset="1" style="stop-color:#12c5ff;stop-opacity:1"/></linearGradient><linearGradient id="_Linear2" x1="0" y1="0" x2="1" y2="0" gradientUnits="userSpaceOnUse" gradientTransform="matrix(0.0842772,33.9738,-33.9738,0.0842772,23.3403,18.9938)"><stop offset="0" style="stop-color:#137098;stop-opacity:1"/><stop offset="0.42" style="stop-color:#106597;stop-opacity:1"/><stop offset="1" style="stop-color:#0b4e94;stop-opacity:1"/></linearGradient><linearGradient id="_Linear3" x1="0" y1="0" x2="1" y2="0" gradientUnits="userSpaceOnUse" gradientTransform="matrix(0.176587,28.373,-28.373,0.176587,42.3856,18.9671)"><stop offset="0" style="stop-color:#137098;stop-opacity:1"/><stop offset="1" style="stop-color:#0b4e94;stop-opacity:1"/></linearGradient></defs></svg>