<?xml version="1.0" encoding="UTF-8" standalone="no"?><!DOCTYPE svg PUBLIC "-//W3C//DTD SVG 1.1//EN" "http://www.w3.org/Graphics/SVG/1.1/DTD/svg11.dtd"><svg width="100%" height="100%" viewBox="0 0 64 64" version="1.1" xmlns="http://www.w3.org/2000/svg" xmlns:xlink="http://www.w3.org/1999/xlink" xml:space="preserve" xmlns:serif="http://www.serif.com/" style="fill-rule:evenodd;clip-rule:evenodd;stroke-linejoin:round;stroke-miterlimit:2;"><g id="folder_B"><path d="M61.122,17.148c0,-2.122 -0.843,-4.157 -2.344,-5.657c-1.5,-1.5 -3.535,-2.343 -5.656,-2.343c-12.631,0 -36.735,0 -46.244,0c-2.209,0 -4,1.791 -4,4c0,7.511 0,23.855 0,33.704c0,2.122 0.843,4.157 2.344,5.657c1.5,1.5 3.535,2.343 5.656,2.343c11.119,0 31.125,0 42.244,0c2.121,0 4.156,-0.843 5.656,-2.343c1.501,-1.5 2.344,-3.535 2.344,-5.657c0,-8.347 0,-21.357 0,-29.704Z" style="fill:#0083d5;"/><path d="M61.122,17.148c0,-2.122 -0.843,-4.157 -2.344,-5.657c-1.5,-1.5 -3.535,-2.343 -5.656,-2.343c-7.292,0 -17.598,0 -22.162,0c-1.478,0 -2.879,0.653 -3.829,1.784c-0.729,0.869 -1.604,1.909 -2.333,2.778c-0.95,1.131 -2.351,1.784 -3.829,1.784c-3.169,0 -8.922,0 -13.091,0c-1.326,0 -2.597,0.527 -3.535,1.465c-0.938,0.937 -1.465,2.209 -1.465,3.535c0,6.646 0,18.466 0,26.358c0,2.122 0.843,4.157 2.344,5.657c1.5,1.5 3.535,2.343 5.656,2.343l42.244,0c2.121,0 4.156,-0.843 5.656,-2.343c1.501,-1.5 2.344,-3.535 2.344,-5.657c0,-8.347 0,-21.357 0,-29.704Z" style="fill:url(#_Linear1);"/></g><path d="M26.671,22.162c-5.397,0 -9.838,4.441 -9.838,9.838c0,5.397 4.441,9.838 9.838,9.838l20.496,0l0,-1.639l-15.069,0l-5.427,0c-4.498,0 -8.199,-3.701 -8.199,-8.199c0,-4.498 3.701,-8.199 8.199,-8.199l0,-1.639Zm0,2.459c-4.076,0 -7.379,3.303 -7.379,7.379c0,4.076 3.303,7.379 7.379,7.379l20.496,0l0,-1.64l-20.496,0c-3.17,0 -5.739,-2.569 -5.739,-5.739c0,-3.17 2.569,-5.739 5.739,-5.739c0.851,0.002 1.691,0.194 2.459,0.562l0,-1.771c-0.789,-0.282 -1.62,-0.428 -2.459,-0.431Zm0,2.46c-2.699,0 -4.919,2.22 -4.919,4.919c0,2.699 2.22,4.919 4.919,4.919l20.496,0l0,-1.64l-20.496,0c-1.799,0 -3.28,-1.48 -3.28,-3.279c0,-1.799 1.481,-3.279 3.28,-3.279c1.168,0.001 2.251,0.628 2.836,1.639l1.794,0c-0.691,-1.958 -2.553,-3.276 -4.63,-3.279Z" style="fill:url(#_Linear2);fill-rule:nonzero;"/><defs><linearGradient id="_Linear1" x1="0" y1="0" x2="1" y2="0" gradientUnits="userSpaceOnUse" gradientTransform="matrix(2.31885e-15,-45.0363,37.8697,2.75768e-15,33.3576,54.4153)"><stop offset="0" style="stop-color:#1075f6;stop-opacity:1"/><stop offset="1" style="stop-color:#12c5ff;stop-opacity:1"/></linearGradient><linearGradient id="_Linear2" x1="0" y1="0" x2="1" y2="0" gradientUnits="userSpaceOnUse" gradientTransform="matrix(1.27296e-15,20.789,-20.789,1.27296e-15,32,21.0493)"><stop offset="0" style="stop-color:#126c98;stop-opacity:1"/><stop offset="1" style="stop-color:#0b4f94;stop-opacity:1"/></linearGradient></defs></svg>