<?xml version="1.0" encoding="UTF-8" standalone="no"?><!DOCTYPE svg PUBLIC "-//W3C//DTD SVG 1.1//EN" "http://www.w3.org/Graphics/SVG/1.1/DTD/svg11.dtd"><svg width="100%" height="100%" viewBox="0 0 64 64" version="1.1" xmlns="http://www.w3.org/2000/svg" xmlns:xlink="http://www.w3.org/1999/xlink" xml:space="preserve" xmlns:serif="http://www.serif.com/" style="fill-rule:evenodd;clip-rule:evenodd;stroke-linejoin:round;stroke-miterlimit:2;"><g id="folder_B"><path d="M61.122,17.148c0,-2.122 -0.843,-4.157 -2.344,-5.657c-1.5,-1.5 -3.535,-2.343 -5.656,-2.343c-12.631,0 -36.735,0 -46.244,0c-2.209,0 -4,1.791 -4,4c0,7.511 0,23.855 0,33.704c0,2.122 0.843,4.157 2.344,5.657c1.5,1.5 3.535,2.343 5.656,2.343c11.119,0 31.125,0 42.244,0c2.121,0 4.156,-0.843 5.656,-2.343c1.501,-1.5 2.344,-3.535 2.344,-5.657c0,-8.347 0,-21.357 0,-29.704Z" style="fill:#0083d5;"/><path d="M61.122,17.148c0,-2.122 -0.843,-4.157 -2.344,-5.657c-1.5,-1.5 -3.535,-2.343 -5.656,-2.343c-7.292,0 -17.598,0 -22.162,0c-1.478,0 -2.879,0.653 -3.829,1.784c-0.729,0.869 -1.604,1.909 -2.333,2.778c-0.95,1.131 -2.351,1.784 -3.829,1.784c-3.169,0 -8.922,0 -13.091,0c-1.326,0 -2.597,0.527 -3.535,1.465c-0.938,0.937 -1.465,2.209 -1.465,3.535c0,6.646 0,18.466 0,26.358c0,2.122 0.843,4.157 2.344,5.657c1.5,1.5 3.535,2.343 5.656,2.343l42.244,0c2.121,0 4.156,-0.843 5.656,-2.343c1.501,-1.5 2.344,-3.535 2.344,-5.657c0,-8.347 0,-21.357 0,-29.704Z" style="fill:url(#_Linear1);"/></g><path d="M30.011,20.653c-6.187,0 -6.325,4.13 -8.113,6.911c2.192,-1.033 4.635,-1.916 7.27,-2.596c2.398,-0.619 4.815,-1.028 7.161,-1.213c-1.489,-1.21 -2.527,-3.102 -6.318,-3.102Zm8.492,5.916c-2.727,0.052 -5.686,0.473 -8.604,1.227c-9.613,2.483 -16.465,7.884 -15.304,12.063c0.669,2.388 3.897,4.55 8.704,4.836c-0.003,-0.017 -0.007,-0.033 -0.009,-0.051l0,-0.006c-0.005,-0.042 -0.02,-0.08 -0.026,-0.122c-0.28,-2.548 1.178,-4.527 2.855,-5.922c1.676,-1.396 3.827,-2.405 6.261,-2.947c1.182,-0.265 2.373,-0.398 3.545,-0.383l0.002,0c1.757,0.022 3.379,0.349 4.806,1.159c1.178,0.667 2.255,1.827 2.713,3.261c4.388,-2.681 6.656,-6.293 5.965,-8.815c-0.767,-2.767 -4.951,-4.417 -10.908,-4.3Zm-2.613,11.617c-0.922,-0.012 -1.898,0.097 -2.874,0.314c-4.027,0.897 -7.094,3.449 -6.846,5.696c0.249,2.248 3.714,3.341 7.743,2.443c4.026,-0.899 7.087,-3.449 6.839,-5.696c-0.18,-1.635 -2.095,-2.722 -4.862,-2.757Z" style="fill:url(#_Linear2);fill-rule:nonzero;"/><defs><linearGradient id="_Linear1" x1="0" y1="0" x2="1" y2="0" gradientUnits="userSpaceOnUse" gradientTransform="matrix(2.31885e-15,-45.0363,37.8697,2.75768e-15,33.3576,54.4153)"><stop offset="0" style="stop-color:#1075f6;stop-opacity:1"/><stop offset="1" style="stop-color:#12c5ff;stop-opacity:1"/></linearGradient><linearGradient id="_Linear2" x1="0" y1="0" x2="1" y2="0" gradientUnits="userSpaceOnUse" gradientTransform="matrix(0.856626,26.3003,-26.3003,0.856626,32,20.6528)"><stop offset="0" style="stop-color:#126c98;stop-opacity:1"/><stop offset="1" style="stop-color:#0b4f94;stop-opacity:1"/></linearGradient></defs></svg>