<?xml version="1.0" encoding="UTF-8" standalone="no"?><!DOCTYPE svg PUBLIC "-//W3C//DTD SVG 1.1//EN" "http://www.w3.org/Graphics/SVG/1.1/DTD/svg11.dtd"><svg width="100%" height="100%" viewBox="0 0 64 64" version="1.1" xmlns="http://www.w3.org/2000/svg" xmlns:xlink="http://www.w3.org/1999/xlink" xml:space="preserve" xmlns:serif="http://www.serif.com/" style="fill-rule:evenodd;clip-rule:evenodd;stroke-linejoin:round;stroke-miterlimit:2;"><g id="folder_B"><path d="M61.122,17.148c0,-2.122 -0.843,-4.157 -2.344,-5.657c-1.5,-1.5 -3.535,-2.343 -5.656,-2.343c-12.631,0 -36.735,0 -46.244,0c-2.209,0 -4,1.791 -4,4c0,7.511 0,23.855 0,33.704c0,2.122 0.843,4.157 2.344,5.657c1.5,1.5 3.535,2.343 5.656,2.343c11.119,0 31.125,0 42.244,0c2.121,0 4.156,-0.843 5.656,-2.343c1.501,-1.5 2.344,-3.535 2.344,-5.657c0,-8.347 0,-21.357 0,-29.704Z" style="fill:#0083d5;"/><path d="M61.122,17.148c0,-2.122 -0.843,-4.157 -2.344,-5.657c-1.5,-1.5 -3.535,-2.343 -5.656,-2.343c-7.292,0 -17.598,0 -22.162,0c-1.478,0 -2.879,0.653 -3.829,1.784c-0.729,0.869 -1.604,1.909 -2.333,2.778c-0.95,1.131 -2.351,1.784 -3.829,1.784c-3.169,0 -8.922,0 -13.091,0c-1.326,0 -2.597,0.527 -3.535,1.465c-0.938,0.937 -1.465,2.209 -1.465,3.535c0,6.646 0,18.466 0,26.358c0,2.122 0.843,4.157 2.344,5.657c1.5,1.5 3.535,2.343 5.656,2.343l42.244,0c2.121,0 4.156,-0.843 5.656,-2.343c1.501,-1.5 2.344,-3.535 2.344,-5.657c0,-8.347 0,-21.357 0,-29.704Z" style="fill:url(#_Linear1);"/></g><path id="desktop" d="M44.386,19.916c0.832,0.004 1.502,0.675 1.502,1.502l0,21.164c0,0.829 -0.673,1.502 -1.502,1.502l-24.772,0c-0.829,0 -1.502,-0.673 -1.502,-1.502l0,-21.164c0,-0.827 0.67,-1.498 1.502,-1.502l24.772,0Zm0.399,22.974l0,-18.665l-25.414,0l0,18.665l25.414,0Zm-24.147,-21.94c0.623,0 1.129,0.506 1.129,1.13c0,0.623 -0.506,1.129 -1.129,1.129c-0.624,0 -1.13,-0.506 -1.13,-1.129c0,-0.624 0.506,-1.13 1.13,-1.13Z" style="fill:url(#_Linear2);"/><defs><linearGradient id="_Linear1" x1="0" y1="0" x2="1" y2="0" gradientUnits="userSpaceOnUse" gradientTransform="matrix(2.31885e-15,-45.0363,37.8697,2.75768e-15,33.3576,54.4153)"><stop offset="0" style="stop-color:#1075f6;stop-opacity:1"/><stop offset="1" style="stop-color:#12c5ff;stop-opacity:1"/></linearGradient><linearGradient id="_Linear2" x1="0" y1="0" x2="1" y2="0" gradientUnits="userSpaceOnUse" gradientTransform="matrix(0.0748856,24.1678,-24.1678,0.0748856,31.9003,19.9161)"><stop offset="0" style="stop-color:#137098;stop-opacity:1"/><stop offset="0.5" style="stop-color:#137098;stop-opacity:1"/><stop offset="1" style="stop-color:#0b4e94;stop-opacity:1"/></linearGradient></defs></svg>