<?xml version="1.0" encoding="UTF-8" standalone="no"?><!DOCTYPE svg PUBLIC "-//W3C//DTD SVG 1.1//EN" "http://www.w3.org/Graphics/SVG/1.1/DTD/svg11.dtd"><svg width="100%" height="100%" viewBox="0 0 64 64" version="1.1" xmlns="http://www.w3.org/2000/svg" xmlns:xlink="http://www.w3.org/1999/xlink" xml:space="preserve" xmlns:serif="http://www.serif.com/" style="fill-rule:evenodd;clip-rule:evenodd;stroke-linejoin:round;stroke-miterlimit:2;"><g id="folder_B"><path d="M61.122,17.148c0,-2.122 -0.843,-4.157 -2.344,-5.657c-1.5,-1.5 -3.535,-2.343 -5.656,-2.343c-12.631,0 -36.735,0 -46.244,0c-2.209,0 -4,1.791 -4,4c0,7.511 0,23.855 0,33.704c0,2.122 0.843,4.157 2.344,5.657c1.5,1.5 3.535,2.343 5.656,2.343c11.119,0 31.125,0 42.244,0c2.121,0 4.156,-0.843 5.656,-2.343c1.501,-1.5 2.344,-3.535 2.344,-5.657c0,-8.347 0,-21.357 0,-29.704Z" style="fill:#0083d5;"/><path d="M61.122,17.148c0,-2.122 -0.843,-4.157 -2.344,-5.657c-1.5,-1.5 -3.535,-2.343 -5.656,-2.343c-7.292,0 -17.598,0 -22.162,0c-1.478,0 -2.879,0.653 -3.829,1.784c-0.729,0.869 -1.604,1.909 -2.333,2.778c-0.95,1.131 -2.351,1.784 -3.829,1.784c-3.169,0 -8.922,0 -13.091,0c-1.326,0 -2.597,0.527 -3.535,1.465c-0.938,0.937 -1.465,2.209 -1.465,3.535c0,6.646 0,18.466 0,26.358c0,2.122 0.843,4.157 2.344,5.657c1.5,1.5 3.535,2.343 5.656,2.343l42.244,0c2.121,0 4.156,-0.843 5.656,-2.343c1.501,-1.5 2.344,-3.535 2.344,-5.657c0,-8.347 0,-21.357 0,-29.704Z" style="fill:url(#_Linear1);"/></g><path d="M29.649,42.642c0,1.264 1.053,2.29 2.351,2.29c1.298,0 2.351,-1.026 2.351,-2.29c-0.397,-3.25 -4.626,-2.421 -4.702,0Zm2.351,-7.405c-2.531,0 -4.92,1.088 -6.554,2.983c-0.508,0.587 -0.429,1.464 0.175,1.958c0.267,0.219 0.592,0.326 0.917,0.326c0.407,0 0.811,-0.169 1.093,-0.496c1.091,-1.265 2.684,-1.99 4.369,-1.99c1.685,0 3.278,0.725 4.369,1.99c0.283,0.328 0.687,0.496 1.093,0.496c0.325,0 0.65,-0.106 0.917,-0.326c0.605,-0.494 0.683,-1.371 0.175,-1.958c-1.634,-1.895 -4.023,-2.983 -6.554,-2.983Zm0,-6.115c-4.216,0 -8.197,1.812 -10.924,4.971c-0.507,0.588 -0.429,1.464 0.175,1.958c0.267,0.219 0.593,0.327 0.917,0.327c0.408,0 0.812,-0.169 1.094,-0.496c2.181,-2.529 5.367,-3.98 8.738,-3.98c3.371,0 6.556,1.451 8.739,3.98c0.282,0.328 0.686,0.496 1.093,0.496c0.324,0 0.65,-0.107 0.917,-0.327c0.604,-0.494 0.682,-1.371 0.175,-1.958c-2.728,-3.159 -6.709,-4.971 -10.924,-4.971Zm15.293,1.073c-3.817,-4.425 -9.391,-6.961 -15.293,-6.961c-5.902,0 -11.475,2.536 -15.293,6.961c-0.508,0.587 -0.43,1.464 0.175,1.958c0.267,0.219 0.591,0.326 0.916,0.326c0.407,0 0.811,-0.169 1.094,-0.496c3.273,-3.793 8.051,-5.969 13.108,-5.969c5.057,0 9.835,2.176 13.108,5.968c0.282,0.328 0.687,0.496 1.094,0.496c0.325,0 0.65,-0.106 0.917,-0.326c0.603,-0.493 0.682,-1.371 0.174,-1.957Z" style="fill:url(#_Linear2);fill-rule:nonzero;"/><defs><linearGradient id="_Linear1" x1="0" y1="0" x2="1" y2="0" gradientUnits="userSpaceOnUse" gradientTransform="matrix(2.31885e-15,-45.0363,37.8697,2.75768e-15,33.3576,54.4153)"><stop offset="0" style="stop-color:#1075f6;stop-opacity:1"/><stop offset="1" style="stop-color:#12c5ff;stop-opacity:1"/></linearGradient><linearGradient id="_Linear2" x1="0" y1="0" x2="1" y2="0" gradientUnits="userSpaceOnUse" gradientTransform="matrix(0.894907,21.6978,-21.6978,0.894907,-8055.01,356.739)"><stop offset="0" style="stop-color:#126c98;stop-opacity:1"/><stop offset="1" style="stop-color:#0e5e96;stop-opacity:1"/></linearGradient></defs></svg>