<svg style="clip-rule:evenodd;fill-rule:evenodd;stroke-linejoin:round;stroke-miterlimit:2" version="1.1" viewBox="0 0 64 64" xmlns="http://www.w3.org/2000/svg">
 <path d="m58.871 19.116c-0.266-4.215-3.761-7.497-7.984-7.497h-46.472c-1.104 0-2.159 0.456-2.916 1.261-0.756 0.806-1.145 1.888-1.076 2.99 0.461 7.315 1.409 22.374 1.983 31.485 0.266 4.215 3.761 7.497 7.984 7.497h42.212c2.209 0 4.32-0.913 5.832-2.524 1.512-1.61 2.291-3.774 2.152-5.979-0.499-7.93-1.237-19.645-1.715-27.233z" style="fill:#0083d5"/>
 <path d="m63.496 17.148c0.134-2.122-0.581-4.157-1.987-5.657s-3.387-2.343-5.509-2.343h-22.162c-1.477 0-2.92 0.653-3.941 1.784-0.784 0.869-1.724 1.909-2.508 2.778-1.021 1.131-2.464 1.784-3.941 1.784h-13.091c-1.326 0-2.631 0.527-3.628 1.465-0.996 0.937-1.603 2.209-1.687 3.535-0.418 6.646-1.163 18.466-1.66 26.358-0.133 2.122 0.581 4.157 1.987 5.657s3.388 2.343 5.509 2.343h42.244c2.121 0 4.209-0.843 5.804-2.343s2.566-3.535 2.699-5.657c0.526-8.347 1.345-21.357 1.871-29.704z" style="fill:url(#_Linear1)"/>
 <defs>
  <linearGradient id="_Linear1" x2="1" gradientTransform="matrix(2.77765e-15,-45.3624,45.3624,2.77765e-15,32,54.852)" gradientUnits="userSpaceOnUse">
   <stop style="stop-color:#1077f6" offset="0"/>
   <stop style="stop-color:#12c2ff" offset="1"/>
  </linearGradient>
 </defs>
</svg>
