<?xml version="1.0" encoding="UTF-8" standalone="no"?><!DOCTYPE svg PUBLIC "-//W3C//DTD SVG 1.1//EN" "http://www.w3.org/Graphics/SVG/1.1/DTD/svg11.dtd"><svg width="100%" height="100%" viewBox="0 0 64 64" version="1.1" xmlns="http://www.w3.org/2000/svg" xmlns:xlink="http://www.w3.org/1999/xlink" xml:space="preserve" xmlns:serif="http://www.serif.com/" style="fill-rule:evenodd;clip-rule:evenodd;stroke-linejoin:round;stroke-miterlimit:2;"><g id="folder_B"><path d="M61.122,17.148c0,-2.122 -0.843,-4.157 -2.344,-5.657c-1.5,-1.5 -3.535,-2.343 -5.656,-2.343c-12.631,0 -36.735,0 -46.244,0c-2.209,0 -4,1.791 -4,4c0,7.511 0,23.855 0,33.704c0,2.122 0.843,4.157 2.344,5.657c1.5,1.5 3.535,2.343 5.656,2.343c11.119,0 31.125,0 42.244,0c2.121,0 4.156,-0.843 5.656,-2.343c1.501,-1.5 2.344,-3.535 2.344,-5.657c0,-8.347 0,-21.357 0,-29.704Z" style="fill:#0083d5;"/><path d="M61.122,17.148c0,-2.122 -0.843,-4.157 -2.344,-5.657c-1.5,-1.5 -3.535,-2.343 -5.656,-2.343c-7.292,0 -17.598,0 -22.162,0c-1.478,0 -2.879,0.653 -3.829,1.784c-0.729,0.869 -1.604,1.909 -2.333,2.778c-0.95,1.131 -2.351,1.784 -3.829,1.784c-3.169,0 -8.922,0 -13.091,0c-1.326,0 -2.597,0.527 -3.535,1.465c-0.938,0.937 -1.465,2.209 -1.465,3.535c0,6.646 0,18.466 0,26.358c0,2.122 0.843,4.157 2.344,5.657c1.5,1.5 3.535,2.343 5.656,2.343l42.244,0c2.121,0 4.156,-0.843 5.656,-2.343c1.501,-1.5 2.344,-3.535 2.344,-5.657c0,-8.347 0,-21.357 0,-29.704Z" style="fill:url(#_Linear1);"/></g><path d="M32,19.728c-3.704,0 -6.694,2.9 -6.694,6.694l2.231,0c0,-2.455 1.986,-4.463 4.463,-4.463c2.477,0 4.463,2.008 4.463,4.463l0,4.462l-4.463,0l-4.463,0l-2.231,0l-1.116,0c-0.618,0 -1.115,0.498 -1.115,1.116l0,11.157c0,0.618 0.497,1.115 1.115,1.115l15.62,0c0.618,0 1.115,-0.497 1.115,-1.115l0,-11.157c0,-0.618 -0.497,-1.116 -1.115,-1.116l-1.116,0l0,-4.462c0,-3.794 -2.99,-6.694 -6.694,-6.694Z" style="fill:url(#_Linear2);fill-rule:nonzero;"/><defs><linearGradient id="_Linear1" x1="0" y1="0" x2="1" y2="0" gradientUnits="userSpaceOnUse" gradientTransform="matrix(2.31885e-15,-45.0363,37.8697,2.75768e-15,33.3576,54.4153)"><stop offset="0" style="stop-color:#1075f6;stop-opacity:1"/><stop offset="1" style="stop-color:#12c5ff;stop-opacity:1"/></linearGradient><linearGradient id="_Linear2" x1="0" y1="0" x2="1" y2="0" gradientUnits="userSpaceOnUse" gradientTransform="matrix(1.50293e-15,24.5447,-24.5447,1.50293e-15,32,19.7277)"><stop offset="0" style="stop-color:#126c98;stop-opacity:1"/><stop offset="1" style="stop-color:#0b4f94;stop-opacity:1"/></linearGradient></defs></svg>