<?xml version="1.0" encoding="UTF-8" standalone="no"?><!DOCTYPE svg PUBLIC "-//W3C//DTD SVG 1.1//EN" "http://www.w3.org/Graphics/SVG/1.1/DTD/svg11.dtd"><svg width="100%" height="100%" viewBox="0 0 64 64" version="1.1" xmlns="http://www.w3.org/2000/svg" xmlns:xlink="http://www.w3.org/1999/xlink" xml:space="preserve" xmlns:serif="http://www.serif.com/" style="fill-rule:evenodd;clip-rule:evenodd;stroke-linejoin:round;stroke-miterlimit:2;"><g id="folder_B"><path d="M61.122,17.148c0,-2.122 -0.843,-4.157 -2.344,-5.657c-1.5,-1.5 -3.535,-2.343 -5.656,-2.343c-12.631,0 -36.735,0 -46.244,0c-2.209,0 -4,1.791 -4,4c0,7.511 0,23.855 0,33.704c0,2.122 0.843,4.157 2.344,5.657c1.5,1.5 3.535,2.343 5.656,2.343c11.119,0 31.125,0 42.244,0c2.121,0 4.156,-0.843 5.656,-2.343c1.501,-1.5 2.344,-3.535 2.344,-5.657c0,-8.347 0,-21.357 0,-29.704Z" style="fill:#0083d5;"/><path d="M61.122,17.148c0,-2.122 -0.843,-4.157 -2.344,-5.657c-1.5,-1.5 -3.535,-2.343 -5.656,-2.343c-7.292,0 -17.598,0 -22.162,0c-1.478,0 -2.879,0.653 -3.829,1.784c-0.729,0.869 -1.604,1.909 -2.333,2.778c-0.95,1.131 -2.351,1.784 -3.829,1.784c-3.169,0 -8.922,0 -13.091,0c-1.326,0 -2.597,0.527 -3.535,1.465c-0.938,0.937 -1.465,2.209 -1.465,3.535c0,6.646 0,18.466 0,26.358c0,2.122 0.843,4.157 2.344,5.657c1.5,1.5 3.535,2.343 5.656,2.343l42.244,0c2.121,0 4.156,-0.843 5.656,-2.343c1.501,-1.5 2.344,-3.535 2.344,-5.657c0,-8.347 0,-21.357 0,-29.704Z" style="fill:url(#_Linear1);"/></g><path d="M17.706,34.78l5.374,3.104c-0.009,0.123 -0.014,0.247 -0.014,0.37c0,2.961 2.4,5.36 5.36,5.36c2.961,0 5.361,-2.399 5.361,-5.36c-0.004,-0.245 -0.023,-0.488 -0.059,-0.729l6.5,-4.642c3.377,-0.102 6.063,-2.866 6.066,-6.243c0,-3.454 -2.799,-6.254 -6.253,-6.254c-3.454,0 -6.256,2.8 -6.254,6.279l-4.149,6.375c-0.397,-0.095 -0.804,-0.145 -1.212,-0.147c-0.809,0.002 -1.608,0.188 -2.335,0.542l-8.385,-4.841m22.335,-6.421c2.467,0 4.467,1.999 4.467,4.467c0,2.467 -2,4.467 -4.467,4.467c-2.468,0 -4.467,-2 -4.467,-4.467c0,-2.468 1.999,-4.467 4.467,-4.467Zm0,1.786c-1.48,0 -2.681,1.201 -2.681,2.681c0,1.479 1.201,2.68 2.681,2.68c1.479,0 2.68,-1.201 2.68,-2.68c0,-1.48 -1.201,-2.681 -2.68,-2.681Zm-11.615,10.721c1.975,0 3.574,1.599 3.574,3.574c0,1.974 -1.599,3.573 -3.574,3.573c-1.704,-0.001 -3.169,-1.207 -3.5,-2.878l1.26,0.729c1.286,0.741 2.918,0.305 3.661,-0.981c0.741,-1.287 0.305,-2.918 -0.981,-3.661l-0.604,-0.349c0.055,-0.003 0.109,-0.005 0.164,-0.007Z" style="fill:url(#_Linear2);fill-rule:nonzero;"/><defs><linearGradient id="_Linear1" x1="0" y1="0" x2="1" y2="0" gradientUnits="userSpaceOnUse" gradientTransform="matrix(2.31885e-15,-45.0363,37.8697,2.75768e-15,33.3576,54.4153)"><stop offset="0" style="stop-color:#1075f6;stop-opacity:1"/><stop offset="1" style="stop-color:#12c5ff;stop-opacity:1"/></linearGradient><linearGradient id="_Linear2" x1="0" y1="0" x2="1" y2="0" gradientUnits="userSpaceOnUse" gradientTransform="matrix(0.130883,23.8946,-23.8946,0.130883,32.8537,19.7197)"><stop offset="0" style="stop-color:#126c98;stop-opacity:1"/><stop offset="1" style="stop-color:#0b4f94;stop-opacity:1"/></linearGradient></defs></svg>