<?xml version="1.0" encoding="UTF-8" standalone="no"?><!DOCTYPE svg PUBLIC "-//W3C//DTD SVG 1.1//EN" "http://www.w3.org/Graphics/SVG/1.1/DTD/svg11.dtd"><svg width="100%" height="100%" viewBox="0 0 64 64" version="1.1" xmlns="http://www.w3.org/2000/svg" xmlns:xlink="http://www.w3.org/1999/xlink" xml:space="preserve" xmlns:serif="http://www.serif.com/" style="fill-rule:evenodd;clip-rule:evenodd;stroke-linecap:round;stroke-linejoin:round;"><g id="folder_B"><path d="M61.122,17.148c0,-2.122 -0.843,-4.157 -2.344,-5.657c-1.5,-1.5 -3.535,-2.343 -5.656,-2.343c-12.631,0 -36.735,0 -46.244,0c-2.209,0 -4,1.791 -4,4c0,7.511 0,23.855 0,33.704c0,2.122 0.843,4.157 2.344,5.657c1.5,1.5 3.535,2.343 5.656,2.343c11.119,0 31.125,0 42.244,0c2.121,0 4.156,-0.843 5.656,-2.343c1.501,-1.5 2.344,-3.535 2.344,-5.657c0,-8.347 0,-21.357 0,-29.704Z" style="fill:#0083d5;"/><path d="M61.122,17.148c0,-2.122 -0.843,-4.157 -2.344,-5.657c-1.5,-1.5 -3.535,-2.343 -5.656,-2.343c-7.292,0 -17.598,0 -22.162,0c-1.478,0 -2.879,0.653 -3.829,1.784c-0.729,0.869 -1.604,1.909 -2.333,2.778c-0.95,1.131 -2.351,1.784 -3.829,1.784c-3.169,0 -8.922,0 -13.091,0c-1.326,0 -2.597,0.527 -3.535,1.465c-0.938,0.937 -1.465,2.209 -1.465,3.535c0,6.646 0,18.466 0,26.358c0,2.122 0.843,4.157 2.344,5.657c1.5,1.5 3.535,2.343 5.656,2.343l42.244,0c2.121,0 4.156,-0.843 5.656,-2.343c1.501,-1.5 2.344,-3.535 2.344,-5.657c0,-8.347 0,-21.357 0,-29.704Z" style="fill:url(#_Linear1);"/></g><g><circle cx="36.391" cy="30.353" r="4.94" style="fill:url(#_Linear2);stroke:url(#_Linear3);stroke-width:1.1px;"/><circle cx="46.27" cy="39.135" r="2.744" style="fill:url(#_Linear4);stroke:url(#_Linear5);stroke-width:1.1px;"/><circle cx="40.233" cy="36.391" r="5.488" style="fill:url(#_Linear6);stroke:url(#_Linear7);stroke-width:1.1px;"/><circle cx="19.925" cy="36.94" r="4.94" style="fill:url(#_Linear8);stroke:url(#_Linear9);stroke-width:1.1px;"/><circle cx="24.865" cy="26.512" r="3.293" style="fill:url(#_Linear10);stroke:url(#_Linear11);stroke-width:1.1px;"/><circle cx="25.414" cy="32.549" r="6.037" style="fill:url(#_Linear12);stroke:url(#_Linear13);stroke-width:1.1px;"/><circle cx="24.865" cy="39.135" r="2.744" style="fill:url(#_Linear14);stroke:url(#_Linear15);stroke-width:1.1px;"/><circle cx="30.353" cy="27.609" r="5.488" style="fill:url(#_Linear16);stroke:url(#_Linear17);stroke-width:1.1px;"/><circle cx="32" cy="34.744" r="7.135" style="fill:url(#_Linear18);stroke:url(#_Linear19);stroke-width:1.1px;"/></g><defs><linearGradient id="_Linear1" x1="0" y1="0" x2="1" y2="0" gradientUnits="userSpaceOnUse" gradientTransform="matrix(2.31885e-15,-45.0363,37.8697,2.75768e-15,33.3576,54.4153)"><stop offset="0" style="stop-color:#1075f6;stop-opacity:1"/><stop offset="1" style="stop-color:#12c5ff;stop-opacity:1"/></linearGradient><linearGradient id="_Linear2" x1="0" y1="0" x2="1" y2="0" gradientUnits="userSpaceOnUse" gradientTransform="matrix(1.23613e-15,20.1876,-20.1876,1.23613e-15,32,21.6917)"><stop offset="0" style="stop-color:#126c98;stop-opacity:1"/><stop offset="1" style="stop-color:#0b4f94;stop-opacity:1"/></linearGradient><linearGradient id="_Linear3" x1="0" y1="0" x2="1" y2="0" gradientUnits="userSpaceOnUse" gradientTransform="matrix(-0.0558706,20.0058,-20.0058,-0.0558706,31.0863,21.8735)"><stop offset="0" style="stop-color:#12b3fd;stop-opacity:1"/><stop offset="1" style="stop-color:#118cf9;stop-opacity:1"/></linearGradient><linearGradient id="_Linear4" x1="0" y1="0" x2="1" y2="0" gradientUnits="userSpaceOnUse" gradientTransform="matrix(1.23613e-15,20.1876,-20.1876,1.23613e-15,32,21.6917)"><stop offset="0" style="stop-color:#126c98;stop-opacity:1"/><stop offset="1" style="stop-color:#0b4f94;stop-opacity:1"/></linearGradient><linearGradient id="_Linear5" x1="0" y1="0" x2="1" y2="0" gradientUnits="userSpaceOnUse" gradientTransform="matrix(-0.0558706,20.0058,-20.0058,-0.0558706,31.0863,21.8735)"><stop offset="0" style="stop-color:#12b3fd;stop-opacity:1"/><stop offset="1" style="stop-color:#118cf9;stop-opacity:1"/></linearGradient><linearGradient id="_Linear6" x1="0" y1="0" x2="1" y2="0" gradientUnits="userSpaceOnUse" gradientTransform="matrix(1.23613e-15,20.1876,-20.1876,1.23613e-15,32,21.6917)"><stop offset="0" style="stop-color:#126c98;stop-opacity:1"/><stop offset="1" style="stop-color:#0b4f94;stop-opacity:1"/></linearGradient><linearGradient id="_Linear7" x1="0" y1="0" x2="1" y2="0" gradientUnits="userSpaceOnUse" gradientTransform="matrix(-0.0558706,20.0058,-20.0058,-0.0558706,31.0863,21.8735)"><stop offset="0" style="stop-color:#12b3fd;stop-opacity:1"/><stop offset="1" style="stop-color:#118cf9;stop-opacity:1"/></linearGradient><linearGradient id="_Linear8" x1="0" y1="0" x2="1" y2="0" gradientUnits="userSpaceOnUse" gradientTransform="matrix(1.23613e-15,20.1876,-20.1876,1.23613e-15,32,21.6917)"><stop offset="0" style="stop-color:#126c98;stop-opacity:1"/><stop offset="1" style="stop-color:#0b4f94;stop-opacity:1"/></linearGradient><linearGradient id="_Linear9" x1="0" y1="0" x2="1" y2="0" gradientUnits="userSpaceOnUse" gradientTransform="matrix(-0.0558706,20.0058,-20.0058,-0.0558706,31.0863,21.8735)"><stop offset="0" style="stop-color:#12b3fd;stop-opacity:1"/><stop offset="1" style="stop-color:#118cf9;stop-opacity:1"/></linearGradient><linearGradient id="_Linear10" x1="0" y1="0" x2="1" y2="0" gradientUnits="userSpaceOnUse" gradientTransform="matrix(1.23613e-15,20.1876,-20.1876,1.23613e-15,32,21.6917)"><stop offset="0" style="stop-color:#126c98;stop-opacity:1"/><stop offset="1" style="stop-color:#0b4f94;stop-opacity:1"/></linearGradient><linearGradient id="_Linear11" x1="0" y1="0" x2="1" y2="0" gradientUnits="userSpaceOnUse" gradientTransform="matrix(-0.0558706,20.0058,-20.0058,-0.0558706,31.0863,21.8735)"><stop offset="0" style="stop-color:#12b3fd;stop-opacity:1"/><stop offset="1" style="stop-color:#118cf9;stop-opacity:1"/></linearGradient><linearGradient id="_Linear12" x1="0" y1="0" x2="1" y2="0" gradientUnits="userSpaceOnUse" gradientTransform="matrix(1.23613e-15,20.1876,-20.1876,1.23613e-15,32,21.6917)"><stop offset="0" style="stop-color:#126c98;stop-opacity:1"/><stop offset="1" style="stop-color:#0b4f94;stop-opacity:1"/></linearGradient><linearGradient id="_Linear13" x1="0" y1="0" x2="1" y2="0" gradientUnits="userSpaceOnUse" gradientTransform="matrix(-0.0558706,20.0058,-20.0058,-0.0558706,31.0863,21.8735)"><stop offset="0" style="stop-color:#12b3fd;stop-opacity:1"/><stop offset="1" style="stop-color:#118cf9;stop-opacity:1"/></linearGradient><linearGradient id="_Linear14" x1="0" y1="0" x2="1" y2="0" gradientUnits="userSpaceOnUse" gradientTransform="matrix(1.23613e-15,20.1876,-20.1876,1.23613e-15,32,21.6917)"><stop offset="0" style="stop-color:#126c98;stop-opacity:1"/><stop offset="1" style="stop-color:#0b4f94;stop-opacity:1"/></linearGradient><linearGradient id="_Linear15" x1="0" y1="0" x2="1" y2="0" gradientUnits="userSpaceOnUse" gradientTransform="matrix(-0.0558706,20.0058,-20.0058,-0.0558706,31.0863,21.8735)"><stop offset="0" style="stop-color:#12b3fd;stop-opacity:1"/><stop offset="1" style="stop-color:#118cf9;stop-opacity:1"/></linearGradient><linearGradient id="_Linear16" x1="0" y1="0" x2="1" y2="0" gradientUnits="userSpaceOnUse" gradientTransform="matrix(1.23613e-15,20.1876,-20.1876,1.23613e-15,32,21.6917)"><stop offset="0" style="stop-color:#126c98;stop-opacity:1"/><stop offset="1" style="stop-color:#0b4f94;stop-opacity:1"/></linearGradient><linearGradient id="_Linear17" x1="0" y1="0" x2="1" y2="0" gradientUnits="userSpaceOnUse" gradientTransform="matrix(-0.0558706,20.0058,-20.0058,-0.0558706,31.0863,21.8735)"><stop offset="0" style="stop-color:#12b3fd;stop-opacity:1"/><stop offset="1" style="stop-color:#118cf9;stop-opacity:1"/></linearGradient><linearGradient id="_Linear18" x1="0" y1="0" x2="1" y2="0" gradientUnits="userSpaceOnUse" gradientTransform="matrix(1.23613e-15,20.1876,-20.1876,1.23613e-15,32,21.6917)"><stop offset="0" style="stop-color:#126c98;stop-opacity:1"/><stop offset="1" style="stop-color:#0b4f94;stop-opacity:1"/></linearGradient><linearGradient id="_Linear19" x1="0" y1="0" x2="1" y2="0" gradientUnits="userSpaceOnUse" gradientTransform="matrix(-0.0558706,20.0058,-20.0058,-0.0558706,31.0863,21.8735)"><stop offset="0" style="stop-color:#12b3fd;stop-opacity:1"/><stop offset="1" style="stop-color:#118cf9;stop-opacity:1"/></linearGradient></defs></svg>