<?xml version="1.0" encoding="UTF-8" standalone="no"?><!DOCTYPE svg PUBLIC "-//W3C//DTD SVG 1.1//EN" "http://www.w3.org/Graphics/SVG/1.1/DTD/svg11.dtd"><svg width="100%" height="100%" viewBox="0 0 64 64" version="1.1" xmlns="http://www.w3.org/2000/svg" xmlns:xlink="http://www.w3.org/1999/xlink" xml:space="preserve" xmlns:serif="http://www.serif.com/" style="fill-rule:evenodd;clip-rule:evenodd;stroke-linejoin:round;stroke-miterlimit:2;"><g id="folder_B"><path d="M61.122,17.148c0,-2.122 -0.843,-4.157 -2.344,-5.657c-1.5,-1.5 -3.535,-2.343 -5.656,-2.343c-12.631,0 -36.735,0 -46.244,0c-2.209,0 -4,1.791 -4,4c0,7.511 0,23.855 0,33.704c0,2.122 0.843,4.157 2.344,5.657c1.5,1.5 3.535,2.343 5.656,2.343c11.119,0 31.125,0 42.244,0c2.121,0 4.156,-0.843 5.656,-2.343c1.501,-1.5 2.344,-3.535 2.344,-5.657c0,-8.347 0,-21.357 0,-29.704Z" style="fill:#0083d5;"/><path d="M61.122,17.148c0,-2.122 -0.843,-4.157 -2.344,-5.657c-1.5,-1.5 -3.535,-2.343 -5.656,-2.343c-7.292,0 -17.598,0 -22.162,0c-1.478,0 -2.879,0.653 -3.829,1.784c-0.729,0.869 -1.604,1.909 -2.333,2.778c-0.95,1.131 -2.351,1.784 -3.829,1.784c-3.169,0 -8.922,0 -13.091,0c-1.326,0 -2.597,0.527 -3.535,1.465c-0.938,0.937 -1.465,2.209 -1.465,3.535c0,6.646 0,18.466 0,26.358c0,2.122 0.843,4.157 2.344,5.657c1.5,1.5 3.535,2.343 5.656,2.343l42.244,0c2.121,0 4.156,-0.843 5.656,-2.343c1.501,-1.5 2.344,-3.535 2.344,-5.657c0,-8.347 0,-21.357 0,-29.704Z" style="fill:url(#_Linear1);"/></g><path d="M30.069,16.729c0,0 1.272,0.779 0.375,2.825c-1.358,3.085 1.254,3.791 1.254,3.791c0,0 -0.831,-0.723 0.275,-3.269c1.222,-2.821 -1.904,-3.347 -1.904,-3.347Zm4.201,3.489c0,0 -2.312,1.028 -0.823,3.834c0.985,1.86 -0.108,2.781 -0.108,2.781c0,0 2.794,-0.92 1.447,-3.488c-1.211,-2.321 -0.516,-3.127 -0.516,-3.127Zm-6.559,1.03c0,0 -1.656,1.763 -0.017,3.927c1.084,1.441 0.375,2.688 0.375,2.688c0,0 2.052,-1.82 0.568,-3.811c-1.34,-1.798 -0.926,-2.804 -0.926,-2.804Zm13.346,7.356l-18.901,0c0,0 2.032,8.128 2.911,11.642c0.233,0.934 1.071,1.589 2.034,1.589l8.996,0c0.895,0 1.691,-0.568 1.982,-1.413c0.143,-0.414 0.262,-0.758 0.262,-0.758c0.367,0.092 0.746,0.156 1.141,0.156c2.608,-0.001 4.725,-1.677 4.725,-4.287c0,-2.214 -1.529,-4.058 -3.585,-4.569l0.435,-2.36Zm-0.812,3.88c0.017,0.002 0.034,0.006 0.052,0.009c0.84,0.226 2.695,1.329 2.108,3.544c-0.647,2.443 -2.789,2.37 -3.622,2.208l1.462,-5.761Z" style="fill:url(#_Linear2);fill-rule:nonzero;"/><defs><linearGradient id="_Linear1" x1="0" y1="0" x2="1" y2="0" gradientUnits="userSpaceOnUse" gradientTransform="matrix(2.31885e-15,-45.0363,37.8697,2.75768e-15,33.3576,54.4153)"><stop offset="0" style="stop-color:#1075f6;stop-opacity:1"/><stop offset="1" style="stop-color:#12c5ff;stop-opacity:1"/></linearGradient><linearGradient id="_Linear2" x1="0" y1="0" x2="1" y2="0" gradientUnits="userSpaceOnUse" gradientTransform="matrix(0.0550288,25.1058,-25.1058,0.0550288,30.8355,16.7294)"><stop offset="0" style="stop-color:#126c98;stop-opacity:1"/><stop offset="1" style="stop-color:#0b4f94;stop-opacity:1"/></linearGradient></defs></svg>